<svg width="40" height="39" viewBox="0 0 40 39" fill="none" xmlns="http://www.w3.org/2000/svg">
<path fill-rule="evenodd" clip-rule="evenodd" d="M26.5145 3.25C31.7545 3.25 35.2745 6.74863 35.2745 11.9551V26.8986C35.2745 32.1506 31.8628 35.5664 26.5828 35.5989L13.7611 35.6038C8.52115 35.6038 4.99948 32.1051 4.99948 26.8986V11.9551C4.99948 6.7015 8.41115 3.28738 13.6911 3.2565L26.5128 3.25H26.5145ZM26.5145 5.6875L13.6995 5.694C9.81948 5.71675 7.49948 8.05675 7.49948 11.9551V26.8986C7.49948 30.823 9.84115 33.1663 13.7595 33.1663L26.5745 33.1614C30.4545 33.1386 32.7745 30.7954 32.7745 26.8986V11.9551C32.7745 8.03075 30.4345 5.6875 26.5145 5.6875ZM26.193 25.1448C26.883 25.1448 27.443 25.6908 27.443 26.3635C27.443 27.0363 26.883 27.5823 26.193 27.5823H14.1596C13.4696 27.5823 12.9096 27.0363 12.9096 26.3635C12.9096 25.6908 13.4696 25.1448 14.1596 25.1448H26.193ZM26.193 18.3417C26.883 18.3417 27.443 18.8877 27.443 19.5605C27.443 20.2332 26.883 20.7792 26.193 20.7792H14.1596C13.4696 20.7792 12.9096 20.2332 12.9096 19.5605C12.9096 18.8877 13.4696 18.3417 14.1596 18.3417H26.193ZM18.7508 11.5544C19.4408 11.5544 20.0008 12.1004 20.0008 12.7732C20.0008 13.4459 19.4408 13.9919 18.7508 13.9919H14.1591C13.4691 13.9919 12.9091 13.4459 12.9091 12.7732C12.9091 12.1004 13.4691 11.5544 14.1591 11.5544H18.7508Z" fill="#6096BA"/>
</svg>
