<svg width="41" height="40" viewBox="0 0 41 40" fill="none" xmlns="http://www.w3.org/2000/svg">
<path fill-rule="evenodd" clip-rule="evenodd" d="M27.3238 5.12341C32.3628 5.12341 35.7485 8.57298 35.7485 13.7053V25.5539C35.7485 30.6862 32.3628 34.1358 27.3208 34.1358H14.4325C9.39495 34.1358 6.0108 30.6862 6.0108 25.5539V13.7053C6.0108 8.57298 9.39495 5.12341 14.4325 5.12341H27.3238ZM27.3238 7.29934H14.4325C10.6722 7.29934 8.24113 9.81326 8.24113 13.7053V25.5539C8.24113 29.4459 10.6722 31.9598 14.4325 31.9598H27.3208C31.0856 31.9598 33.5181 29.4459 33.5181 25.5539V13.7053C33.5181 9.81326 31.0856 7.29934 27.3238 7.29934ZM16.1763 15.8557C17.9238 15.8568 19.4008 16.9895 19.8809 18.5401L28.3285 18.5409C28.944 18.5409 29.4436 19.0283 29.4436 19.6289V22.3169C29.4436 22.9174 28.944 23.4048 28.3285 23.4048C27.7129 23.4048 27.2133 22.9174 27.2133 22.3169V20.7168L25.2377 20.7161L25.2384 22.3169C25.2384 22.9174 24.7388 23.4048 24.1233 23.4048C23.5077 23.4048 23.0081 22.9174 23.0081 22.3169L23.0074 20.7161L19.8815 20.7175C19.4018 22.2699 17.9225 23.4047 16.1763 23.4047C14.0426 23.4047 12.3075 21.7104 12.3075 19.6302C12.3075 17.5485 14.0426 15.8557 16.1763 15.8557ZM16.1793 18.0316C15.2723 18.0316 14.5378 18.7482 14.5378 19.6302C14.5378 20.5121 15.2723 21.2287 16.1763 21.2287C17.0789 21.2287 17.8149 20.5121 17.8149 19.6302C17.8149 18.7496 17.0803 18.033 16.1793 18.0316Z" fill="#6096BA"/>
</svg>
