<svg width="41" height="40" viewBox="0 0 41 40" fill="none" xmlns="http://www.w3.org/2000/svg">
<path fill-rule="evenodd" clip-rule="evenodd" d="M20.3064 24.0233L20.4993 24.0234L20.9308 24.0248C24.2289 24.046 31.7659 24.371 31.7659 29.355C31.7659 34.3062 24.4917 34.6291 20.9822 34.6502L19.682 34.6502C16.3837 34.629 8.84523 34.3043 8.84523 29.3266C8.84523 24.3692 16.3837 24.0459 19.682 24.0248L20.1135 24.0234C20.1805 24.0233 20.2448 24.0233 20.3064 24.0233ZM20.3064 26.5233C16.2474 26.5233 11.4077 27.01 11.4077 29.3266C11.4077 31.5909 15.9586 32.1202 19.9354 32.1502L20.3064 32.1516C24.3654 32.1516 29.2034 31.6666 29.2034 29.355C29.2034 27.015 24.3654 26.5233 20.3064 26.5233ZM33.8938 23.347C38.0331 23.952 38.9027 25.8486 38.9027 27.3336C38.9027 28.2403 38.5371 29.8953 36.0942 30.8036C35.9438 30.8586 35.7901 30.8853 35.638 30.8853C35.1221 30.8853 34.6353 30.5786 34.4405 30.0803C34.1877 29.4353 34.5208 28.712 35.1819 28.467C36.3402 28.037 36.3402 27.562 36.3402 27.3336C36.3402 26.6036 35.3886 26.0936 33.5129 25.8203C32.8142 25.717 32.3307 25.082 32.4349 24.397C32.5391 23.7136 33.1883 23.2586 33.8938 23.347ZM8.17625 24.397C8.28045 25.082 7.797 25.717 7.09829 25.8203C5.22254 26.0936 4.271 26.6036 4.271 27.3336C4.271 27.562 4.271 28.0353 5.43095 28.467C6.09208 28.712 6.4252 29.4353 6.17237 30.0803C5.97762 30.5786 5.49075 30.8853 4.97483 30.8853C4.82279 30.8853 4.66904 30.8586 4.5187 30.8036C2.07408 29.8936 1.7085 28.2386 1.7085 27.3336C1.7085 25.8503 2.57804 23.952 6.71904 23.347C7.42458 23.2603 8.07033 23.7136 8.17625 24.397ZM20.3064 6.66663C24.6114 6.66663 28.1118 10.0833 28.1118 14.2816C28.1118 18.48 24.6114 21.8966 20.3064 21.8966H20.2603C18.1761 21.89 16.2235 21.0933 14.7612 19.6533C13.2954 18.215 12.4942 16.305 12.5027 14.2766C12.5027 10.0833 16.0031 6.66663 20.3064 6.66663ZM20.3064 9.16663C17.4159 9.16663 15.0652 11.4616 15.0652 14.2816C15.0601 15.6483 15.5966 16.9266 16.5789 17.8916C17.5611 18.8566 18.8697 19.3916 20.2637 19.3966L20.3064 20.6466V19.3966C23.1969 19.3966 25.5493 17.1033 25.5493 14.2816C25.5493 11.4616 23.1969 9.16663 20.3064 9.16663ZM30.8793 8.29913C33.8826 8.78079 36.0641 11.2875 36.0641 14.2591C36.0573 17.2508 33.7664 19.8175 30.7341 20.2325C30.6743 20.2408 30.6145 20.2441 30.5564 20.2441C29.9278 20.2441 29.3794 19.7925 29.2889 19.1675C29.1915 18.4825 29.6784 17.8508 30.3805 17.7558C32.1572 17.5125 33.4982 16.0091 33.5016 14.2558C33.5016 12.5175 32.2238 11.0475 30.4625 10.7658C29.7655 10.6541 29.2923 10.0108 29.4067 9.32913C29.5229 8.64746 30.1772 8.19079 30.8793 8.29913ZM11.2061 9.32913C11.3206 10.0108 10.8474 10.6541 10.1504 10.7658C8.3891 11.0475 7.11127 12.5175 7.11127 14.2591C7.11469 16.0091 8.45573 17.5141 10.2307 17.7558C10.9328 17.8508 11.4197 18.4825 11.3223 19.1675C11.2318 19.7925 10.6834 20.2441 10.0547 20.2441C9.99665 20.2441 9.93685 20.2408 9.87706 20.2325C6.84477 19.8175 4.5556 17.2508 4.54877 14.2625C4.54877 11.2875 6.73031 8.78079 9.73356 8.29913C10.4528 8.18913 11.09 8.65079 11.2061 9.32913Z" fill="#6096BA"/>
</svg>
