<svg width="41" height="40" viewBox="0 0 41 40" fill="none" xmlns="http://www.w3.org/2000/svg">
<path fill-rule="evenodd" clip-rule="evenodd" d="M21.3262 3.33337C23.2617 3.33337 33.4178 6.73504 34.7622 8.04671C35.8829 9.14004 35.8658 10.0234 35.7872 14.2567C35.7565 15.9534 35.7138 18.265 35.7138 21.465C35.7138 32.935 22.2692 37.0384 21.6969 37.2067C21.5756 37.2434 21.4509 37.26 21.3262 37.26C21.2015 37.26 21.0768 37.2434 20.9555 37.2067C20.3832 37.0384 6.93859 32.935 6.93859 21.465C6.93859 18.27 6.89588 15.9584 6.86513 14.2617C6.85109 13.5049 6.83902 12.855 6.83505 12.2918L6.83456 11.6563C6.84922 9.56858 7.05005 8.86671 7.89184 8.04671C9.23288 6.73504 19.3889 3.33337 21.3262 3.33337ZM21.3262 5.83337C19.8775 5.83337 10.7379 8.97337 9.68388 9.83171C9.37296 10.1367 9.361 10.6667 9.42763 14.215C9.45838 15.925 9.50109 18.2484 9.50109 21.465C9.50109 30.1334 19.2762 33.9817 21.3245 34.69C23.371 33.9784 33.1513 30.1084 33.1513 21.465C33.1513 18.245 33.194 15.92 33.2264 14.21C33.2913 10.665 33.2794 10.135 32.9497 9.81504C31.9161 8.97337 22.7748 5.83337 21.3262 5.83337ZM27.6837 15.5659C28.1843 16.0542 28.1843 16.8459 27.6837 17.3342L21.0247 23.8325C20.8333 24.0205 20.5862 24.1424 20.321 24.1836L20.1192 24.1992C19.7793 24.1992 19.453 24.0675 19.2121 23.8325L15.9799 20.6759C15.4811 20.1875 15.4811 19.3942 15.9817 18.9075C16.4805 18.4192 17.2937 18.4192 17.7942 18.9075L20.1192 21.1792L25.8729 15.5659C26.3734 15.0775 27.1832 15.0775 27.6837 15.5659Z" fill="#6096BA"/>
</svg>
