<svg width="512" height="512" viewBox="0 0 512 512" fill="none" xmlns="http://www.w3.org/2000/svg">
<path d="M21.976 0V430.113H36.976V15H327.56V75.3499H387.911V497H36.976V445.114H21.976V512H402.911V64.7429L338.167 0H21.976ZM342.56 25.606L377.305 60.3499H342.56V25.606Z" fill="#0A083B"/>
<path d="M490.025 105.693L475.123 89.035V54.4H430.124V89.035L415.222 105.693L422.996 397.376H430.125V421.646L452.625 466.645L475.124 421.646V397.376H482.253L490.025 105.693ZM437.601 382.376L434.743 275.126H470.505L467.647 382.376H437.601ZM434.343 260.125L430.375 111.251L440.978 99.399H464.27L474.873 111.251L470.905 260.125H434.343ZM445.124 69.4H460.123V84.399H445.124V69.4ZM460.123 418.104L452.624 433.103L445.124 418.104V397.375H460.123V418.104Z" fill="#0A083B"/>
<path d="M72.306 325.033H87.306V340.033H72.306V325.033Z" fill="#0A083B"/>
<path d="M102.305 325.033H209.273V340.033H102.305V325.033Z" fill="#0A083B"/>
<path d="M261.913 248.5H352.58V263.5H261.913V248.5Z" fill="#0A083B"/>
<path d="M72.306 248.5H246.912V263.5H72.306V248.5Z" fill="#0A083B"/>
<path d="M72.306 286.767H127.682V301.767H72.306V286.767Z" fill="#0A083B"/>
<path d="M142.682 286.767H352.58V301.767H142.682V286.767Z" fill="#0A083B"/>
<path d="M72.306 210.233H127.682V225.233H72.306V210.233Z" fill="#0A083B"/>
<path d="M142.682 210.233H352.58V225.233H142.682V210.233Z" fill="#0A083B"/>
<path d="M261.913 133.7H352.58V148.7H261.913V133.7Z" fill="#0A083B"/>
<path d="M72.306 133.7H246.912V148.7H72.306V133.7Z" fill="#0A083B"/>
<path d="M246.912 171.967H142.682H127.682H72.306V186.967H127.682H142.682H246.912H261.913H352.58V171.967H261.913H246.912Z" fill="#0A083B"/>
<path d="M102.305 363.3H209.273V378.3H102.305V363.3Z" fill="#0A083B"/>
<path d="M72.306 363.3H87.306V378.3H72.306V363.3Z" fill="#0A083B"/>
<path d="M275.613 95.434H352.58V110.434H275.613V95.434Z" fill="#0A083B"/>
<path d="M215.613 95.434H230.614V110.434H215.613V95.434Z" fill="#0A083B"/>
<path d="M245.613 95.434H260.613V110.434H245.613V95.434Z" fill="#0A083B"/>
<path d="M445.124 121.899H460.124V187.127H445.124V121.899Z" fill="#0A083B"/>
<path d="M445.124 202.127H460.124V217.127H445.124V202.127Z" fill="#0A083B"/>
<path d="M96.976 30H111.976V45H96.976V30Z" fill="#0A083B"/>
<path d="M51.975 82.5H66.975V45H81.975V30H51.975V82.5Z" fill="#0A083B"/>
<path d="M126.976 30H141.976V45H126.976V30Z" fill="#0A083B"/>
<path d="M290.412 467.001H305.412V482.001H290.412V467.001Z" fill="#0A083B"/>
<path d="M372.912 452.001H357.912V467.001H320.412V482.001H372.912V452.001Z" fill="#0A083B"/>
<path d="M352.58 363.3H262.58V415.8H352.58V363.3ZM337.58 400.8H277.58V378.3H337.58V400.8Z" fill="#0A083B"/>
</svg>
