<svg width="9" height="12" viewBox="0 0 9 12" fill="none" xmlns="http://www.w3.org/2000/svg">
<path d="M1.9798 11.1769L7.84851 6.00798C7.9472 5.91337 8.003 5.78258 8.003 5.64586C8.003 5.50915 7.9472 5.37836 7.84851 5.28375L1.9798 0.117158C1.88574 0.0336702 1.76184 -0.00810376 1.63643 0.00138632C1.51102 0.0108764 1.39482 0.0708192 1.31439 0.167511L0.581686 1.0381C0.411394 1.24009 0.434648 1.54134 0.633921 1.71481L5.08239 5.55716C5.10836 5.57951 5.1233 5.61207 5.1233 5.64634C5.1233 5.6806 5.10836 5.71316 5.08239 5.73551L0.635333 9.57928C0.539031 9.66293 0.479945 9.78144 0.471097 9.90869C0.459811 10.0353 0.500208 10.1611 0.583097 10.2574L1.31627 11.1285C1.39685 11.2249 1.51302 11.2847 1.63835 11.2942C1.76367 11.3037 1.88751 11.262 1.98169 11.1788L1.9798 11.1769Z" fill="#175CFF"/>
</svg>
