<svg width="258" height="42" viewBox="0 0 258 42" fill="none" xmlns="http://www.w3.org/2000/svg">
<g clip-path="url(#clip0)">
<path d="M4.5 4C4.0401 3.99961 3.58463 4.08993 3.15968 4.26581C2.73473 4.44169 2.34865 4.69966 2.02354 5.02495C1.69843 5.35025 1.44068 5.73648 1.26505 6.16153C1.08941 6.58658 0.999346 7.0421 1 7.502C0.999872 7.96157 1.09033 8.41666 1.2662 8.84125C1.44207 9.26583 1.6999 9.65159 2.02496 9.97646C2.35002 10.3013 2.73592 10.5589 3.16061 10.7346C3.58529 10.9102 4.04043 11.0004 4.5 11C5.42775 10.9995 6.31738 10.6308 6.97359 9.975C7.62979 9.31917 7.99894 8.42975 8 7.502C8 6.57356 7.63132 5.68312 6.975 5.02642C6.31868 4.36973 5.42845 4.00053 4.5 4ZM96.5 4C95.5716 4.00053 94.6813 4.36973 94.025 5.02642C93.3687 5.68312 93 6.57356 93 7.502C93.0011 8.42975 93.3702 9.31917 94.0264 9.975C94.6826 10.6308 95.5723 10.9995 96.5 11C97.4277 10.9995 98.3174 10.6308 98.9736 9.975C99.6298 9.31917 99.9989 8.42975 100 7.502C100 6.57356 99.6313 5.68312 98.975 5.02642C98.3187 4.36973 97.4284 4.00053 96.5 4ZM65.5 4C64.5716 4.00053 63.6813 4.36973 63.025 5.02642C62.3687 5.68312 62 6.57356 62 7.502C62.0011 8.42975 62.3702 9.31917 63.0264 9.975C63.6826 10.6308 64.5723 10.9995 65.5 11C66.4277 10.9995 67.3174 10.6308 67.9736 9.975C68.6298 9.31917 68.9989 8.42975 69 7.502C69 6.57356 68.6313 5.68312 67.975 5.02642C67.3187 4.36973 66.4284 4.00053 65.5 4ZM251.5 32C250.586 32.0218 249.717 32.4002 249.079 33.0542C248.44 33.7082 248.083 34.586 248.083 35.5C248.083 36.414 248.44 37.2918 249.079 37.9458C249.717 38.5998 250.586 38.9782 251.5 39C252.414 38.9782 253.283 38.5998 253.921 37.9458C254.56 37.2918 254.917 36.414 254.917 35.5C254.917 34.586 254.56 33.7082 253.921 33.0542C253.283 32.4002 252.414 32.0218 251.5 32ZM221.5 32C220.586 32.0218 219.717 32.4002 219.079 33.0542C218.44 33.7082 218.083 34.586 218.083 35.5C218.083 36.414 218.44 37.2918 219.079 37.9458C219.717 38.5998 220.586 38.9782 221.5 39C222.414 38.9782 223.283 38.5998 223.921 37.9458C224.56 37.2918 224.917 36.414 224.917 35.5C224.917 34.586 224.56 33.7082 223.921 33.0542C223.283 32.4002 222.414 32.0218 221.5 32ZM189.496 32C189.037 32.0001 188.582 32.0908 188.157 32.2668C187.733 32.4428 187.347 32.7006 187.023 33.0257C186.698 33.3507 186.441 33.7365 186.265 34.1611C186.09 34.5856 186 35.0406 186 35.5C186 36.1924 186.205 36.8693 186.59 37.4449C186.975 38.0206 187.522 38.4692 188.162 38.734C188.801 38.9987 189.505 39.0678 190.184 38.9325C190.863 38.7971 191.487 38.4633 191.976 37.9735C192.466 37.4836 192.799 36.8596 192.933 36.1804C193.068 35.5012 192.998 34.7973 192.732 34.1578C192.467 33.5184 192.018 32.972 191.442 32.5879C190.865 32.2038 190.188 31.9992 189.496 32ZM158.496 32C158.031 31.9926 157.57 32.0777 157.139 32.2504C156.707 32.4231 156.315 32.68 155.984 33.006C155.653 33.332 155.39 33.7207 155.211 34.1493C155.032 34.5779 154.94 35.038 154.94 35.5026C154.94 35.9672 155.033 36.427 155.213 36.8553C155.393 37.2837 155.657 37.6719 155.988 37.9973C156.32 38.3228 156.713 38.579 157.144 38.7509C157.576 38.9229 158.037 39.0072 158.502 38.999C159.42 38.9827 160.295 38.6065 160.938 37.9513C161.581 37.2962 161.941 36.4146 161.94 35.4966C161.939 34.5785 161.578 33.6976 160.933 33.0435C160.289 32.3895 159.414 32.0147 158.496 32ZM127.503 32C126.575 31.9992 125.684 32.3672 125.027 33.023C124.37 33.6788 124.001 34.5687 124 35.497C123.999 36.4253 124.367 37.3158 125.023 37.9728C125.679 38.6297 126.569 38.9992 127.497 39C128.425 39.0008 129.316 38.6328 129.973 37.977C130.63 37.3212 130.999 36.4313 131 35.503C131.001 34.5747 130.633 33.6842 129.977 33.0273C129.321 32.3703 128.431 32.0008 127.503 32ZM96.504 32C95.8116 31.9992 95.1345 32.2038 94.5584 32.5879C93.9823 32.972 93.5331 33.5184 93.2676 34.1578C93.0021 34.7973 92.9322 35.5012 93.0668 36.1804C93.2014 36.8596 93.5344 37.4836 94.0237 37.9735C94.513 38.4633 95.1367 38.7971 95.8157 38.9325C96.4948 39.0678 97.1987 38.9987 97.8385 38.734C98.4782 38.4692 99.0251 38.0206 99.4099 37.4449C99.7946 36.8693 100 36.1924 100 35.5C100 33.567 98.437 32 96.504 32ZM65.5 32C64.5862 32.0218 63.7172 32.4002 63.0787 33.0542C62.4401 33.7082 62.0827 34.586 62.0827 35.5C62.0827 36.414 62.4401 37.2918 63.0787 37.9458C63.7172 38.5998 64.5862 38.9782 65.5 39C66.4138 38.9782 67.2828 38.5998 67.9213 37.9458C68.5599 37.2918 68.9173 36.414 68.9173 35.5C68.9173 34.586 68.5599 33.7082 67.9213 33.0542C67.2828 32.4002 66.4138 32.0218 65.5 32ZM35.5 32C35.0402 31.9995 34.5849 32.0896 34.16 32.2654C33.7351 32.4411 33.3491 32.6988 33.024 33.024C32.6988 33.3491 32.4411 33.7351 32.2654 34.16C32.0896 34.5849 31.9995 35.0402 32 35.5C32 37.431 33.561 39 35.5 39C36.4138 38.9782 37.2828 38.5998 37.9213 37.9458C38.5599 37.2918 38.9173 36.414 38.9173 35.5C38.9173 34.586 38.5599 33.7082 37.9213 33.0542C37.2828 32.4002 36.4138 32.0218 35.5 32Z" fill="#57586E"/>
<path d="M127 14C130.867 14 134 10.867 134 7C134 5.61553 133.589 4.26215 132.82 3.11101C132.051 1.95986 130.958 1.06266 129.679 0.532843C128.4 0.00302923 126.992 -0.135594 125.634 0.134502C124.277 0.404599 123.029 1.07128 122.05 2.05025C121.071 3.02922 120.405 4.2765 120.135 5.63437C119.864 6.99223 120.003 8.3997 120.533 9.67878C121.063 10.9579 121.96 12.0511 123.111 12.8203C124.262 13.5895 125.616 14 127 14Z" fill="#175CFF"/>
<path d="M252 42C253.591 42 255.117 41.3679 256.243 40.2426C257.368 39.1174 258 37.5913 258 36C258 34.4087 257.368 32.8826 256.243 31.7574C255.117 30.6321 253.591 30 252 30C250.409 30 248.883 30.6321 247.757 31.7574C246.632 32.8826 246 34.4087 246 36C246 37.5913 246.632 39.1174 247.757 40.2426C248.883 41.3679 250.409 42 252 42Z" fill="#175CFF"/>
<path d="M35.5 4C34.5716 4.00053 33.6813 4.36972 33.025 5.02642C32.3687 5.68311 32 6.57356 32 7.502C32.0011 8.42975 32.3702 9.31917 33.0264 9.975C33.6826 10.6308 34.5723 10.9995 35.5 11C36.4278 10.9995 37.3174 10.6308 37.9736 9.975C38.6298 9.31917 38.9989 8.42975 39 7.502C39 6.57356 38.6313 5.68311 37.975 5.02642C37.3187 4.36972 36.4284 4.00053 35.5 4ZM3.5 32C3.04023 31.9995 2.58487 32.0896 2.15999 32.2654C1.73511 32.4411 1.34906 32.6988 1.02395 33.024C0.698845 33.3491 0.441057 33.7351 0.265352 34.16C0.0896469 34.5849 -0.000524068 35.0402 2.29116e-06 35.5C2.29116e-06 37.431 1.561 39 3.5 39C4.41377 38.9782 5.28277 38.5998 5.92132 37.9458C6.55987 37.2918 6.91733 36.414 6.91733 35.5C6.91733 34.586 6.55987 33.7082 5.92132 33.0542C5.28277 32.4002 4.41377 32.0218 3.5 32Z" fill="#57586E"/>
</g>
<defs>
<clipPath id="clip0">
<rect width="258" height="42" fill="white"/>
</clipPath>
</defs>
</svg>
