<svg width="512" height="512" viewBox="0 0 512 512" fill="none" xmlns="http://www.w3.org/2000/svg">
<path d="M178.002 512C175.399 512 172.842 510.984 170.929 509.071L129.858 468H70C31.402 468 0 436.598 0 398V244C0 205.402 31.402 174 70 174H171C176.522 174 181 178.477 181 184C181 189.523 176.522 194 171 194H70C42.43 194 20 216.43 20 244V398C20 425.57 42.43 448 70 448H134.979C139.069 448 142.605 450.461 144.15 454.008L168.018 477.875L168.032 457.993C168.036 452.473 172.511 448 178.032 448H286C313.57 448 336 425.57 336 398V329C336 323.477 340.478 319 346 319C351.522 319 356 323.477 356 329V398C356 436.598 324.598 468 286 468H188.024L188 502.007C187.997 506.05 185.56 509.694 181.823 511.24C180.588 511.751 179.289 512 178.002 512Z" fill="#0A083B"/>
<path d="M448.002 326.255C445.4 326.255 442.844 325.239 440.931 323.328L403.544 285.962C391.544 289.102 379.163 290.691 366.654 290.691H341.345C261.202 290.691 196 225.49 196 145.346C196 65.202 261.202 0 341.346 0H366.655C446.798 0 512 65.202 512 145.346C512 168.562 506.687 190.751 496.206 211.297C486.978 229.387 473.829 245.58 458 258.399V316.255C458 320.299 455.564 323.945 451.828 325.493C450.591 326.006 449.291 326.255 448.002 326.255ZM406.459 264.738C409.071 264.738 411.625 265.763 413.529 267.665L438 292.123V253.523C438 250.382 439.476 247.424 441.983 245.535C473.77 221.595 492 185.077 492 145.346C492 76.23 435.771 20 366.655 20H341.346C272.23 20 216 76.23 216 145.346C216 214.462 272.229 270.692 341.346 270.692H366.655C379.216 270.692 391.62 268.838 403.523 265.18C404.489 264.883 405.479 264.738 406.459 264.738Z" fill="#0A083B"/>
<path d="M356.8 186.774C351.278 186.774 346.8 182.297 346.8 176.774V152.749C346.8 143.792 352.93 136.164 361.708 134.2C372.542 131.776 379.849 121.934 379.081 110.797C378.321 99.77 369.432 90.881 358.404 90.121C352.114 89.687 346.136 91.8 341.562 96.069C336.984 100.342 334.462 106.143 334.462 112.402C334.462 117.925 329.984 122.402 324.462 122.402C318.94 122.402 314.462 117.925 314.462 112.402C314.462 100.711 319.365 89.429 327.915 81.448C336.584 73.355 347.91 69.352 359.778 70.167C380.714 71.61 397.59 88.486 399.033 109.421C400.468 130.242 386.949 148.68 366.799 153.548V176.774C366.8 182.297 362.323 186.774 356.8 186.774Z" fill="#0A083B"/>
<path d="M356.8 226.33C354.17 226.33 351.59 225.27 349.73 223.41C347.871 221.55 346.8 218.97 346.8 216.33C346.8 213.7 347.87 211.12 349.73 209.26C351.59 207.4 354.17 206.33 356.8 206.33C359.43 206.33 362.01 207.4 363.87 209.26C365.729 211.12 366.8 213.7 366.8 216.33C366.8 218.97 365.73 221.54 363.87 223.41C362.01 225.27 359.43 226.33 356.8 226.33Z" fill="#0A083B"/>
<path d="M275 330H64C58.478 330 54 325.523 54 320C54 314.477 58.478 310 64 310H275C280.522 310 285 314.477 285 320C285 325.523 280.523 330 275 330Z" fill="#0A083B"/>
<path d="M275 386C272.37 386 269.79 384.93 267.93 383.07C266.07 381.21 265 378.63 265 376C265 373.37 266.069 370.79 267.93 368.93C269.79 367.07 272.37 366 275 366C277.63 366 280.21 367.07 282.069 368.93C283.929 370.79 285 373.37 285 376C285 378.64 283.93 381.21 282.069 383.07C280.21 384.93 277.63 386 275 386Z" fill="#0A083B"/>
<path d="M235.667 386H64C58.478 386 54 381.523 54 376C54 370.477 58.478 366 64 366H235.667C241.189 366 245.667 370.477 245.667 376C245.667 381.523 241.19 386 235.667 386Z" fill="#0A083B"/>
<path d="M210 274H64C58.478 274 54 269.523 54 264C54 258.477 58.478 254 64 254H210C215.522 254 220 258.477 220 264C220 269.523 215.523 274 210 274Z" fill="#0A083B"/>
</svg>
