<svg width="506" height="506" viewBox="0 0 506 506" fill="none" xmlns="http://www.w3.org/2000/svg">
<g clip-path="url(#clip0)">
<path d="M437.1 233.45C451.9 223.05 461.7 205.75 461.7 186.25C461.7 154.35 435.9 128.55 404 128.55C372.1 128.55 346.3 154.35 346.3 186.25C346.3 205.75 356 223.05 370.9 233.45C358.2 237.85 346.6 244.65 336.8 253.45C323.3 241.95 307.4 233.15 290 227.95C311.1 215.15 325.3 191.85 325.3 165.35C325.3 124.95 292.6 92.25 252.2 92.25C211.8 92.25 179.1 125.05 179.1 165.35C179.1 191.85 193.2 215.15 214.4 227.95C197.2 233.15 181.5 241.85 168.1 253.15C158.3 244.55 146.9 237.85 134.4 233.55C149.2 223.15 159 205.85 159 186.35C159 154.45 133.2 128.65 101.3 128.65C69.4 128.65 43.6 154.45 43.6 186.35C43.6 205.85 53.3 223.15 68.2 233.55C28.5 247.25 0 284.95 0 329.25V335.85C0 336.05 0.2 336.25 0.4 336.25H122.7C122 341.75 121.6 347.45 121.6 353.15V359.95C121.6 389.35 145.4 413.15 174.8 413.15H329.8C359.2 413.15 383 389.35 383 359.95V353.15C383 347.45 382.6 341.75 381.9 336.25H505C505.2 336.25 505.4 336.05 505.4 335.85V329.25C505.2 284.85 476.8 247.15 437.1 233.45ZM362.3 186.15C362.3 163.15 381 144.45 404 144.45C427 144.45 445.7 163.15 445.7 186.15C445.7 208.85 427.4 227.35 404.8 227.85C404.5 227.85 404.3 227.85 404 227.85C403.7 227.85 403.5 227.85 403.2 227.85C380.5 227.45 362.3 208.95 362.3 186.15ZM194.9 165.35C194.9 133.85 220.5 108.25 252 108.25C283.5 108.25 309.1 133.85 309.1 165.35C309.1 195.75 285.2 220.65 255.3 222.35C254.2 222.35 253.1 222.35 252 222.35C250.9 222.35 249.8 222.35 248.7 222.35C218.8 220.65 194.9 195.75 194.9 165.35ZM59.3 186.15C59.3 163.15 78 144.45 101 144.45C124 144.45 142.7 163.15 142.7 186.15C142.7 208.85 124.4 227.35 101.8 227.85C101.5 227.85 101.3 227.85 101 227.85C100.7 227.85 100.5 227.85 100.2 227.85C77.6 227.45 59.3 208.95 59.3 186.15ZM125.5 320.15H16.2C20.7 277.55 56.7 244.15 100.4 243.85C100.6 243.85 100.8 243.85 101 243.85C101.2 243.85 101.4 243.85 101.6 243.85C122.4 243.95 141.4 251.65 156.1 264.15C141.7 279.75 131 298.95 125.5 320.15ZM366.8 359.95C366.8 380.45 350.1 397.15 329.6 397.15H174.6C154.1 397.15 137.4 380.45 137.4 359.95V353.15C137.4 291.05 187 240.25 248.7 238.45C249.8 238.55 251 238.55 252.1 238.55C253.2 238.55 254.4 238.55 255.5 238.45C317.2 240.25 366.8 291.05 366.8 353.15V359.95V359.95ZM378.7 320.15C373.2 299.05 362.7 280.15 348.4 264.55C363.2 251.75 382.4 244.05 403.4 243.85C403.6 243.85 403.8 243.85 404 243.85C404.2 243.85 404.4 243.85 404.6 243.85C448.3 244.15 484.3 277.55 488.8 320.15H378.7Z" fill="#0A083B"/>
</g>
<defs>
<clipPath id="clip0">
<rect width="505.4" height="505.4" fill="white"/>
</clipPath>
</defs>
</svg>
