<svg width="478" height="478" viewBox="0 0 478 478" fill="none" xmlns="http://www.w3.org/2000/svg">
<g clip-path="url(#clip0)">
<path d="M472.847 226.846L438.731 192.73L250.998 4.99701C244.334 -1.66599 233.53 -1.66599 226.866 4.99701L39.132 192.73L4.999 226.864C-1.549 233.644 -1.362 244.448 5.418 250.996C12.032 257.384 22.517 257.384 29.131 250.996L34.114 245.978V460.779C34.114 470.205 41.755 477.846 51.181 477.846H426.648C436.074 477.846 443.715 470.205 443.715 460.779V245.978L448.715 250.979C455.495 257.527 466.299 257.339 472.847 250.56C479.235 243.946 479.235 233.46 472.847 226.846ZM290.115 443.713H187.715V307.179H290.115V443.713ZM409.581 443.713H324.248V290.113C324.248 280.687 316.607 273.046 307.181 273.046H170.648C161.222 273.046 153.581 280.687 153.581 290.113V443.713H68.248V211.845L238.914 41.178L409.581 211.845V443.713Z" fill="#0A083B"/>
</g>
<defs>
<clipPath id="clip0">
<rect width="477.846" height="477.846" fill="white"/>
</clipPath>
</defs>
</svg>
