<svg xmlns="http://www.w3.org/2000/svg" xmlns:xlink="http://www.w3.org/1999/xlink" width="188" height="372" viewBox="0 0 188 372">
  <defs>
    <clipPath id="clip-path">
      <rect id="Rectangle_23" data-name="Rectangle 23" width="188" height="372" transform="translate(2163 -1244)" fill="#fff" stroke="#707070" stroke-width="1"/>
    </clipPath>
  </defs>
  <g id="Lines" transform="translate(-2163 1244)" clip-path="url(#clip-path)">
    <g id="Vector_7_" data-name="Vector (7)" transform="translate(2207 -1344)" opacity="0.12">
      <path id="Path_11" data-name="Path 11" d="M329.59,227.642H276.415l-16.447,50.624.075.052L276.415,227.9h53.17l16.377,50.416.07-.052Zm-5.722,8.167-.006-.011H282.138l-.006.011ZM303,271.561l5.931-4.307-2.27-6.977h-7.322l-2.276,6.977Zm-52,9.63L270.86,220h64.28L355,281.191,303,319Z" fill="#fff" fill-rule="evenodd"/>
      <path id="Path_12" data-name="Path 12" d="M335.331,220.381H270.663L250.682,281.87l52.312,38,52.324-38ZM242,284.689,265.3,213h75.39L364,284.689,302.994,329Z" fill="#fff" fill-rule="evenodd"/>
      <path id="Path_13" data-name="Path 13" d="M341.077,212.123H264.929L241.4,284.471l61.6,44.72,61.605-44.72ZM233,287.2,259.752,205h86.5L373,287.2,303,338Z" fill="#fff" fill-rule="evenodd"/>
      <path id="Path_14" data-name="Path 14" d="M346.816,203.871H259.184l-27.093,83.207L303,338.5,373.9,287.078ZM224,289.7,254.179,197h97.636L382,289.7,303,347Z" fill="#fff" fill-rule="evenodd"/>
      <path id="Path_15" data-name="Path 15" d="M351.789,195.615H253.222l-30.468,94.069L302.5,347.816l79.749-58.132ZM215,292.211,248.429,189H356.577L390,292.211,302.5,356Z" fill="#fff" fill-rule="evenodd"/>
      <path id="Path_16" data-name="Path 16" d="M357.522,187.366H247.472l-34,104.921L302.5,357.124l89.029-64.837ZM206,294.714,242.865,181H362.129L399,294.714,302.5,365Z" fill="#fff" fill-rule="evenodd"/>
      <path id="Path_17" data-name="Path 17" d="M363.265,179.116H241.735L204.176,294.884,302.5,366.432l98.327-71.548ZM197,297.219,237.3,173H367.7L408,297.219,302.5,374Z" fill="#fff" fill-rule="evenodd"/>
      <path id="Path_18" data-name="Path 18" d="M369.012,170.861H235.994L194.88,297.493,302.5,375.756,410.12,297.493ZM188,299.724,231.739,165H373.261L417,299.724,302.5,383Z" fill="#fff" fill-rule="evenodd"/>
      <path id="Path_19" data-name="Path 19" d="M374.749,163.612h-144.5L185.584,301.089,302.5,386.062l116.919-84.973ZM179,303.233,226.173,158H378.821L426,303.233,302.5,393Z" fill="#fff" fill-rule="evenodd"/>
      <path id="Path_20" data-name="Path 20" d="M380.495,155.352H224.511L176.3,303.7l126.2,91.674L428.708,303.7ZM170,305.746,220.616,150H384.384L435,305.746,302.5,402Z" fill="#fff" fill-rule="evenodd"/>
      <path id="Path_21" data-name="Path 21" d="M386.235,147.109H218.765L167,306.3l135.5,98.383L438,306.3ZM161,308.251,215.054,142H389.946L444,308.251,302.5,411Z" fill="#fff" fill-rule="evenodd"/>
      <path id="Path_22" data-name="Path 22" d="M391.978,138.855H213.016L157.7,308.9,302.5,414,447.3,308.9ZM152,310.755,209.494,134H395.5L453,310.755,302.5,420Z" fill="#fff" fill-rule="evenodd"/>
      <path id="Path_23" data-name="Path 23" d="M397.729,130.59H207.282L148.415,311.5,302.5,423.316,456.6,311.5ZM143,313.266,203.938,126h197.13L462,313.266,302.5,429Z" fill="#fff" fill-rule="evenodd"/>
      <path id="Path_24" data-name="Path 24" d="M403.465,122.348H201.535L139.121,314.107,302.5,432.627l163.382-118.52ZM134,315.766,198.369,118H406.631L471,315.766,302.5,438Z" fill="#fff" fill-rule="evenodd"/>
      <path id="Path_25" data-name="Path 25" d="M409.215,114.094H195.791L129.822,316.718,302.5,441.944l172.68-125.226ZM125,318.273,192.809,110H412.2L480,318.273,302.5,447Z" fill="#fff" fill-rule="evenodd"/>
      <path id="Path_26" data-name="Path 26" d="M414.949,105.846h-224.9L120.523,319.31,302.5,451.25,484.471,319.31ZM116,320.784,187.241,102H417.747L489,320.784,302.5,456Z" fill="#fff" fill-rule="evenodd"/>
      <path id="Path_27" data-name="Path 27" d="M420.7,98.587H184.3L111.23,322.921,302.5,461.561l191.27-138.64ZM107,324.286,181.68,95H423.32L498,324.286,302.5,466Z" fill="#fff" fill-rule="evenodd"/>
      <path id="Path_28" data-name="Path 28" d="M426.639,90.333H179.361l-76.429,235.19L303,470.872,503.068,325.523ZM99,326.8,176.937,87H429.063L507,326.8,303,475Z" fill="#fff" fill-rule="evenodd"/>
      <path id="Path_29" data-name="Path 29" d="M432.382,82.091H173.612L93.628,328.121,303,480.183,512.372,328.121ZM90.9,329.963,90,329.3,171.378,79h263.25L516,329.3,303,484Z" fill="#fff" fill-rule="evenodd"/>
      <path id="Path_30" data-name="Path 30" d="M438.124,73.832H167.876L84.346,330.723,303,489.494,521.659,330.723ZM81,331.806,165.814,71H440.191L525,331.806,303,493Z" fill="#fff" fill-rule="evenodd"/>
      <path id="Path_31" data-name="Path 31" d="M530.958,333.331,443.873,65.585H162.133L75.042,333.331,303,498.811ZM72,334.321,159.955,63.892l.294-.892h285.5L534,334.321,303.76,501.453,303,502Z" fill="#fff" fill-rule="evenodd"/>
      <path id="Path_32" data-name="Path 32" d="M449.618,57.331H156.382L65.748,335.926,303,508.116l237.249-172.19ZM63,336.824,154.688,55H451.312L543,336.824,303,511Z" fill="#fff" fill-rule="evenodd"/>
      <path id="Path_33" data-name="Path 33" d="M455.357,49.078H150.637L56.443,338.539,303,517.433,549.551,338.539ZM54.611,339.777,54,339.339,148.885,47.72l.236-.72H456.879l94.885,291.62.236.719L303,520Z" fill="#fff" fill-rule="evenodd"/>
      <path id="Path_34" data-name="Path 34" d="M461.108,41.825H144.892L47.15,342.135,303,527.738l255.853-185.6ZM45.536,343.223,45,342.831l98.353-302.2.213-.633H462.434L560.8,342.2l.2.633L303,530Z" fill="#fff" fill-rule="evenodd"/>
      <path id="Path_35" data-name="Path 35" d="M568.132,344.741,466.85,33.588H139.156L37.868,344.741,303,537.049Zm-531.659.938-.473-.34L137.83,32.553l.179-.553H468L569.821,344.792l.179.547L303.467,538.655,303,539Z" fill="#fff" fill-rule="evenodd"/>
      <path id="Path_36" data-name="Path 36" d="M472.6,25.329H133.4L28.562,347.343,303,546.366,577.432,347.343ZM27.386,348.138,27,347.85,132.292,24.466l.144-.466H473.558l105.3,323.395.144.455L303,548Z" fill="#fff" fill-rule="evenodd"/>
      <path id="Path_37" data-name="Path 37" d="M586.732,349.947,478.341,17.076H127.665L19.268,349.947,303,555.665Zm-568.409.639L18,350.35,126.76,16.368l.121-.368H479.125L587.879,349.982l.121.368L303.323,556.764,303,557Z" fill="#fff" fill-rule="evenodd"/>
      <path id="Path_38" data-name="Path 38" d="M596.02,353.161,484.081,8.819H121.919L9.975,353.161,302.994,565.974Zm-586.772.49L9,353.479,121.319,8H484.681L597,353.479,303.236,566.821l-.242.179Z" fill="#fff" fill-rule="evenodd"/>
      <path id="Path_39" data-name="Path 39" d="M115.753,0l-.063.2L0,355.981l.173.127L303,576l.167-.127L606,355.981l-.058-.2L490.253,0ZM.675,355.762,116.18.571H489.826l115.5,355.191L303,575.279Z" fill="#fff" fill-rule="evenodd"/>
    </g>
  </g>
</svg>
