<svg width="512" height="512" viewBox="0 0 512 512" fill="none" xmlns="http://www.w3.org/2000/svg">
<g clip-path="url(#clip0)">
<path d="M378.89 228.14C335.559 228.14 300.306 192.887 300.306 149.556C300.306 106.225 335.558 70.9716 378.89 70.9716C422.222 70.9716 457.475 106.225 457.475 149.556C457.475 192.887 422.221 228.14 378.89 228.14Z" fill="#F1F1F1"/>
<path d="M119.429 495.548C115.308 495.548 111.526 492.932 110.069 489.076C108.579 485.129 109.803 480.49 113.079 477.821C116.37 475.14 121.091 474.835 124.702 477.062C128.102 479.16 129.954 483.243 129.29 487.183C128.485 491.945 124.268 495.548 119.429 495.548V495.548Z" fill="#0A083B"/>
<path d="M501.921 337.884C494.179 330.142 483.886 325.878 472.938 325.878C468.179 325.878 463.543 326.684 459.188 328.231C458.217 327.357 457.254 326.5 456.885 326.198C440.537 312.827 416.938 314.014 401.99 328.961L354.752 376.2C350.801 380.148 334.678 389.419 329.988 390.006H301.152C296.095 390.006 294.107 386.154 293.618 384.973C293.204 383.973 292.196 380.861 294.065 377.759L316.904 371.144C329.252 367.567 338.783 358.043 342.4 345.666C345.944 333.537 343.126 320.671 334.852 311.243C334.466 310.804 334.07 310.368 333.663 309.938C327.035 302.939 314.837 302.21 291.567 307.42C275.171 311.091 256.226 317.223 243.221 321.721C214.984 331.487 193.084 353.208 183.369 380.642H173.214V372.799C173.214 367.276 168.737 362.799 163.214 362.799H9.99994C4.47697 362.799 -3.8147e-06 367.276 -3.8147e-06 372.799V485.549C-3.8147e-06 491.072 4.47697 495.549 9.99994 495.549H74.0356C79.5585 495.549 84.0355 491.072 84.0355 485.549C84.0355 480.026 79.5585 475.549 74.0356 475.549H19.9999V382.799H153.212V485.549C153.212 491.072 157.689 495.549 163.212 495.549C168.735 495.549 173.212 491.072 173.212 485.549V477.706H203.1C232.505 487.734 262.882 492.785 293.672 492.785C300.43 492.784 307.211 492.541 314.002 492.054C352.152 489.316 388.663 479.022 422.52 461.458C430.629 457.251 433.546 455.237 435.243 453.598L497.192 396.099C497.283 396.015 497.372 395.929 497.459 395.842C505.046 388.259 510.199 378.204 511.599 368.256C513.243 356.558 509.807 345.771 501.921 337.884V337.884ZM416.131 343.104C423.084 336.15 433.691 335.01 441.846 339.994L396.715 385.125C393.568 388.273 389.382 390.007 384.931 390.007H369.228L416.131 343.104ZM421.274 439.288C421.316 439.246 421.362 439.199 421.414 439.151C421.367 439.197 421.32 439.242 421.274 439.288ZM491.793 365.473C490.993 371.158 487.952 377.018 483.44 381.577L421.541 439.031C421.531 439.04 421.522 439.048 421.514 439.057C421.131 439.341 419.333 440.584 413.311 443.708C350.519 476.281 275.947 481.669 208.726 458.496L208.032 458.256C206.983 457.894 205.882 457.71 204.772 457.71H173.212V400.646H190.738C195.277 400.646 199.247 397.589 200.406 393.2C206.87 368.732 225.319 349.078 249.756 340.626C303.213 322.139 317.276 323.765 319.749 324.359C319.773 324.387 319.799 324.416 319.823 324.444C323.608 328.757 324.84 334.449 323.2 340.058C321.512 345.832 317.078 350.272 311.337 351.935L285.531 359.409C283.911 359.879 282.435 360.75 281.242 361.944C273.036 370.151 270.697 381.908 275.138 392.629C279.578 403.349 289.546 410.008 301.15 410.008H384.931C394.725 410.008 403.932 406.194 410.858 399.269L458.099 352.027C462.063 348.063 467.332 345.88 472.938 345.88C478.543 345.88 483.815 348.064 487.779 352.027C491.214 355.462 492.564 359.986 491.793 365.473V365.473Z" fill="#0A083B"/>
<path d="M389.296 141.072C388.806 140.899 388.327 140.729 387.858 140.562V124.731C388.004 124.884 388.132 125.038 388.239 125.19C391.412 129.711 397.649 130.804 402.169 127.631C406.69 124.459 407.783 118.222 404.61 113.701C401.225 108.877 395.38 104.765 387.817 102.971C387.361 97.8704 383.076 93.8724 377.858 93.8724C372.42 93.8724 367.995 98.2134 367.861 103.62C367.463 103.729 367.062 103.844 366.66 103.965C356.647 106.982 349.091 116.671 348.286 127.528C347.484 138.339 353.196 147.711 363.566 152.601C364.609 153.093 366.061 153.712 367.858 154.434V175.37C366.273 174.533 364.904 173.492 363.896 172.24C360.432 167.938 354.134 167.261 349.835 170.725C345.533 174.189 344.856 180.485 348.319 184.786C353.422 191.121 360.678 194.78 367.948 196.586C368.608 201.47 372.793 205.235 377.857 205.235C382.673 205.235 386.694 201.83 387.644 197.295C400.754 194.778 409.93 185.919 411.456 173.907C413.246 159.819 404.133 146.317 389.296 141.072V141.072ZM391.616 171.388C391.304 173.848 389.754 175.4 387.858 176.377V162.941C390.723 165.478 391.955 168.722 391.616 171.388Z" fill="#0A083B"/>
<path d="M378.89 238.139C330.044 238.139 290.306 198.4 290.306 149.555C290.306 100.709 330.044 60.9706 378.89 60.9706C427.735 60.9706 467.474 100.709 467.474 149.555C467.474 198.4 427.734 238.139 378.89 238.139ZM378.89 80.9705C341.073 80.9705 310.306 111.737 310.306 149.555C310.306 187.373 341.073 218.139 378.89 218.139C416.708 218.139 447.474 187.372 447.474 149.555C447.474 111.738 416.708 80.9705 378.89 80.9705V80.9705Z" fill="#0A083B"/>
<path d="M378.891 282.661C305.494 282.661 245.784 222.95 245.784 149.554C245.784 76.1585 305.495 16.4479 378.891 16.4479C452.285 16.4479 511.997 76.1595 511.997 149.554C511.997 222.95 452.285 282.661 378.891 282.661V282.661ZM378.891 36.4478C316.523 36.4478 265.783 87.1875 265.783 149.554C265.783 211.921 316.523 262.661 378.891 262.661C441.257 262.661 491.997 211.922 491.997 149.554C491.997 87.1865 441.257 36.4478 378.891 36.4478V36.4478Z" fill="#0A083B"/>
</g>
<defs>
<clipPath id="clip0">
<rect width="512" height="512" fill="white"/>
</clipPath>
</defs>
</svg>
