<svg width="473" height="458" viewBox="0 0 473 458" fill="none" xmlns="http://www.w3.org/2000/svg">
<rect width="473" height="458" rx="8" fill="white"/>
<path d="M45.8159 52H56.6284V49.2109H49.1987V45.3906H56.0425V42.6016H49.1987V38.7891H56.5972V36H45.8159V52ZM69.2085 43.4219C68.9116 41.2109 67.1304 39.8438 64.0991 39.8438C61.0288 39.8438 59.0054 41.2656 59.0132 43.5781C59.0054 45.375 60.1382 46.5391 62.4819 47.0078L64.5601 47.4219C65.6069 47.6328 66.0835 48.0156 66.0991 48.6172C66.0835 49.3281 65.3101 49.8359 64.146 49.8359C62.9585 49.8359 62.1694 49.3281 61.9663 48.3516L58.6929 48.5234C59.0054 50.8203 60.9585 52.2344 64.1382 52.2344C67.2476 52.2344 69.4741 50.6484 69.4819 48.2812C69.4741 46.5469 68.3413 45.5078 66.0132 45.0312L63.8413 44.5937C62.7241 44.3516 62.3101 43.9687 62.3179 43.3906C62.3101 42.6719 63.1226 42.2031 64.1538 42.2031C65.3101 42.2031 65.9976 42.8359 66.1616 43.6094L69.2085 43.4219ZM77.9604 40H75.7026V37.125H72.3745V40H70.7339V42.5H72.3745V48.75C72.3589 51.1016 73.9604 52.2656 76.3745 52.1641C77.2339 52.1328 77.8433 51.9609 78.1792 51.8516L77.6558 49.375C77.4917 49.4062 77.1401 49.4844 76.8276 49.4844C76.1636 49.4844 75.7026 49.2344 75.7026 48.3125V42.5H77.9604V40ZM83.5503 52.2266C85.3237 52.2266 86.4722 51.4531 87.0581 50.3359H87.1519V52H90.3081V43.9062C90.3081 41.0469 87.8862 39.8438 85.2144 39.8438C82.3394 39.8438 80.4487 41.2187 79.9878 43.4062L83.0659 43.6562C83.2925 42.8594 84.0034 42.2734 85.1987 42.2734C86.3315 42.2734 86.98 42.8437 86.98 43.8281V43.875C86.98 44.6484 86.1597 44.75 84.0737 44.9531C81.6987 45.1719 79.5659 45.9687 79.5659 48.6484C79.5659 51.0234 81.2612 52.2266 83.5503 52.2266ZM84.5034 49.9297C83.48 49.9297 82.7456 49.4531 82.7456 48.5391C82.7456 47.6016 83.519 47.1406 84.6909 46.9766C85.4175 46.875 86.605 46.7031 87.0034 46.4375V47.7109C87.0034 48.9687 85.9644 49.9297 84.5034 49.9297ZM99.2729 40H97.0151V37.125H93.687V40H92.0464V42.5H93.687V48.75C93.6714 51.1016 95.2729 52.2656 97.687 52.1641C98.5464 52.1328 99.1558 51.9609 99.4917 51.8516L98.9683 49.375C98.8042 49.4062 98.4526 49.4844 98.1401 49.4844C97.4761 49.4844 97.0151 49.2344 97.0151 48.3125V42.5H99.2729V40ZM106.781 52.2344C109.75 52.2344 111.75 50.7891 112.218 48.5625L109.14 48.3594C108.804 49.2734 107.945 49.75 106.835 49.75C105.171 49.75 104.117 48.6484 104.117 46.8594V46.8516H112.289V45.9375C112.289 41.8594 109.82 39.8438 106.648 39.8438C103.117 39.8438 100.828 42.3516 100.828 46.0547C100.828 49.8594 103.085 52.2344 106.781 52.2344ZM104.117 44.7891C104.187 43.4219 105.226 42.3281 106.703 42.3281C108.148 42.3281 109.148 43.3594 109.156 44.7891H104.117Z" fill="#274C77"/>
<path d="M123.945 40H125.359C125.25 37.5703 123.148 35.7734 120.171 35.7734C117.218 35.7734 114.945 37.5469 114.945 40.125C114.945 42.1797 116.398 43.4687 118.906 44.2109L120.82 44.7734C122.804 45.3516 124.164 46.0938 124.164 47.7266C124.164 49.6484 122.421 50.9375 120.031 50.9375C117.875 50.9375 116.187 49.8984 116.031 48H114.531C114.703 50.5312 116.765 52.2734 120.031 52.2734C123.5 52.2734 125.578 50.3125 125.578 47.75C125.578 45.0937 123.265 44.0313 121.234 43.4609L119.546 42.9766C117.992 42.5391 116.359 41.75 116.359 40.0625C116.359 38.3438 117.898 37.0859 120.132 37.0859C122.25 37.0859 123.765 38.2187 123.945 40ZM129.773 56.5C131.273 56.5 132.375 55.6406 133.015 53.8984L138.101 40.0234L136.585 40L133.023 50.1641H132.914L129.351 40H127.843L132.257 52.1172L131.82 53.3359C131.156 55.1484 130.218 55.4687 128.804 55.0234L128.429 56.25C128.71 56.3828 129.226 56.5 129.773 56.5ZM142.205 44.5C142.205 42.4062 143.58 41.1172 145.47 41.1172C147.314 41.1172 148.501 42.3516 148.501 44.3125V52H149.892V44.2266C149.892 41.3828 148.244 39.8438 145.822 39.8438C144.064 39.8438 142.853 40.6562 142.291 41.8828H142.166V40H140.814V52H142.205V44.5ZM158.242 52.25C160.742 52.25 162.5 50.6719 162.82 48.5H161.414C161.093 50.0312 159.835 50.9766 158.242 50.9766C155.89 50.9766 154.335 48.9297 154.335 46.0078C154.335 43.1016 155.937 41.1016 158.242 41.1016C159.953 41.1016 161.109 42.2031 161.406 43.5625H162.812C162.484 41.3359 160.625 39.8359 158.218 39.8359C155.078 39.8359 152.937 42.4453 152.937 46.0547C152.937 49.6328 155.015 52.25 158.242 52.25Z" fill="#969696"/>
<rect x="44.4253" y="369" width="381.536" height="13" rx="6.5" fill="#E9E9E9"/>
<rect x="44.4253" y="386" width="381.536" height="13" rx="6.5" fill="#E9E9E9"/>
<rect x="44.4253" y="403" width="381.536" height="13" rx="6.5" fill="#E9E9E9"/>
<path d="M84.3789 355H83.8047L81.6104 347.289C81.4281 346.656 81.2913 346.136 81.2002 345.73C81.1273 346.127 81.0225 346.583 80.8857 347.098C80.7536 347.613 80.0199 350.247 78.6846 355H78.0967L75.3486 345.006H76.0801L77.8301 351.445C77.8984 351.705 77.9622 351.947 78.0215 352.17C78.0807 352.389 78.1331 352.596 78.1787 352.792C78.2288 352.983 78.2721 353.17 78.3086 353.353C78.3496 353.53 78.3861 353.71 78.418 353.893C78.5273 353.273 78.7598 352.332 79.1152 351.069L80.8242 345.006H81.5967L83.5996 351.965C83.832 352.767 83.9984 353.414 84.0986 353.906C84.1579 353.578 84.2331 353.229 84.3242 352.86C84.4199 352.491 85.124 349.873 86.4365 345.006H87.1406L84.3789 355ZM89.417 355H88.7402V347.569H89.417V355ZM88.6445 345.505C88.6445 345.067 88.7881 344.849 89.0752 344.849C89.2165 344.849 89.3258 344.906 89.4033 345.02C89.4854 345.133 89.5264 345.295 89.5264 345.505C89.5264 345.71 89.4854 345.872 89.4033 345.99C89.3258 346.109 89.2165 346.168 89.0752 346.168C88.7881 346.168 88.6445 345.947 88.6445 345.505ZM93.874 354.535C94.3024 354.535 94.6761 354.499 94.9951 354.426V354.973C94.667 355.082 94.2887 355.137 93.8604 355.137C93.2041 355.137 92.7188 354.961 92.4043 354.61C92.0944 354.259 91.9395 353.708 91.9395 352.956V348.157H90.8389V347.761L91.9395 347.453L92.2812 345.771H92.6299V347.569H94.8105V348.157H92.6299V352.86C92.6299 353.43 92.7301 353.852 92.9307 354.125C93.1312 354.398 93.4456 354.535 93.874 354.535ZM101.783 355V350.181C101.783 349.433 101.626 348.891 101.312 348.554C100.997 348.212 100.509 348.041 99.8486 348.041C98.96 348.041 98.3083 348.267 97.8936 348.718C97.4834 349.164 97.2783 349.891 97.2783 350.898V355H96.6016V344.363H97.2783V347.747L97.2441 348.697H97.292C97.57 348.251 97.9209 347.927 98.3447 347.727C98.7686 347.526 99.2949 347.426 99.9238 347.426C101.61 347.426 102.453 348.33 102.453 350.14V355H101.783ZM105.536 355H104.859V347.569H105.536V355ZM104.764 345.505C104.764 345.067 104.907 344.849 105.194 344.849C105.336 344.849 105.445 344.906 105.522 345.02C105.604 345.133 105.646 345.295 105.646 345.505C105.646 345.71 105.604 345.872 105.522 345.99C105.445 346.109 105.336 346.168 105.194 346.168C104.907 346.168 104.764 345.947 104.764 345.505ZM113.213 355V350.181C113.213 349.433 113.056 348.891 112.741 348.554C112.427 348.212 111.939 348.041 111.278 348.041C110.39 348.041 109.738 348.267 109.323 348.718C108.913 349.164 108.708 349.891 108.708 350.898V355H108.031V347.569H108.605L108.735 348.588H108.776C109.259 347.813 110.118 347.426 111.354 347.426C113.04 347.426 113.883 348.33 113.883 350.14V355H113.213ZM124.492 355L120.767 345.771H120.712C120.748 346.337 120.767 346.915 120.767 347.508V355H120.097V345.006H121.177L124.718 353.797H124.759L128.3 345.006H129.353V355H128.648V347.426C128.648 346.897 128.676 346.35 128.73 345.785H128.676L124.937 355H124.492ZM138.157 351.274C138.157 352.487 137.863 353.435 137.275 354.118C136.688 354.797 135.876 355.137 134.842 355.137C134.19 355.137 133.616 354.979 133.119 354.665C132.622 354.351 132.242 353.899 131.978 353.312C131.713 352.724 131.581 352.045 131.581 351.274C131.581 350.062 131.875 349.119 132.463 348.444C133.051 347.765 133.857 347.426 134.883 347.426C135.904 347.426 136.703 347.77 137.282 348.458C137.866 349.142 138.157 350.08 138.157 351.274ZM132.292 351.274C132.292 352.295 132.515 353.093 132.962 353.667C133.413 354.237 134.049 354.521 134.869 354.521C135.689 354.521 136.323 354.237 136.77 353.667C137.221 353.093 137.446 352.295 137.446 351.274C137.446 350.249 137.218 349.454 136.763 348.889C136.312 348.324 135.676 348.041 134.855 348.041C134.035 348.041 133.402 348.324 132.955 348.889C132.513 349.449 132.292 350.244 132.292 351.274ZM145.396 355V350.181C145.396 349.433 145.239 348.891 144.925 348.554C144.61 348.212 144.123 348.041 143.462 348.041C142.573 348.041 141.922 348.267 141.507 348.718C141.097 349.164 140.892 349.891 140.892 350.898V355H140.215V347.569H140.789L140.919 348.588H140.96C141.443 347.813 142.302 347.426 143.537 347.426C145.223 347.426 146.066 348.33 146.066 350.14V355H145.396ZM150.435 354.535C150.863 354.535 151.237 354.499 151.556 354.426V354.973C151.228 355.082 150.849 355.137 150.421 355.137C149.765 355.137 149.279 354.961 148.965 354.61C148.655 354.259 148.5 353.708 148.5 352.956V348.157H147.399V347.761L148.5 347.453L148.842 345.771H149.19V347.569H151.371V348.157H149.19V352.86C149.19 353.43 149.291 353.852 149.491 354.125C149.692 354.398 150.006 354.535 150.435 354.535ZM158.344 355V350.181C158.344 349.433 158.187 348.891 157.872 348.554C157.558 348.212 157.07 348.041 156.409 348.041C155.521 348.041 154.869 348.267 154.454 348.718C154.044 349.164 153.839 349.891 153.839 350.898V355H153.162V344.363H153.839V347.747L153.805 348.697H153.853C154.131 348.251 154.481 347.927 154.905 347.727C155.329 347.526 155.855 347.426 156.484 347.426C158.171 347.426 159.014 348.33 159.014 350.14V355H158.344ZM166.027 353.065C166.027 353.731 165.774 354.243 165.269 354.604C164.763 354.959 164.045 355.137 163.115 355.137C162.122 355.137 161.333 354.984 160.75 354.679V353.947C161.497 354.321 162.286 354.508 163.115 354.508C163.849 354.508 164.405 354.387 164.783 354.146C165.166 353.899 165.357 353.574 165.357 353.168C165.357 352.794 165.205 352.48 164.899 352.225C164.599 351.969 164.102 351.719 163.409 351.473C162.666 351.204 162.145 350.974 161.844 350.782C161.543 350.586 161.315 350.368 161.16 350.126C161.01 349.88 160.935 349.581 160.935 349.23C160.935 348.674 161.167 348.235 161.632 347.911C162.101 347.588 162.755 347.426 163.594 347.426C164.396 347.426 165.157 347.576 165.877 347.877L165.624 348.492C164.895 348.191 164.218 348.041 163.594 348.041C162.988 348.041 162.507 348.141 162.151 348.342C161.796 348.542 161.618 348.82 161.618 349.176C161.618 349.563 161.755 349.873 162.028 350.105C162.306 350.338 162.846 350.598 163.648 350.885C164.318 351.126 164.806 351.345 165.111 351.541C165.417 351.732 165.645 351.951 165.795 352.197C165.95 352.443 166.027 352.733 166.027 353.065ZM177.724 351.274C177.724 352.487 177.43 353.435 176.842 354.118C176.254 354.797 175.443 355.137 174.408 355.137C173.757 355.137 173.182 354.979 172.686 354.665C172.189 354.351 171.808 353.899 171.544 353.312C171.28 352.724 171.147 352.045 171.147 351.274C171.147 350.062 171.441 349.119 172.029 348.444C172.617 347.765 173.424 347.426 174.449 347.426C175.47 347.426 176.27 347.77 176.849 348.458C177.432 349.142 177.724 350.08 177.724 351.274ZM171.858 351.274C171.858 352.295 172.082 353.093 172.528 353.667C172.979 354.237 173.615 354.521 174.436 354.521C175.256 354.521 175.889 354.237 176.336 353.667C176.787 353.093 177.013 352.295 177.013 351.274C177.013 350.249 176.785 349.454 176.329 348.889C175.878 348.324 175.242 348.041 174.422 348.041C173.602 348.041 172.968 348.324 172.521 348.889C172.079 349.449 171.858 350.244 171.858 351.274ZM182.543 348.157H180.793V355H180.116V348.157H178.735V347.761L180.116 347.508V346.934C180.116 346.022 180.283 345.354 180.615 344.931C180.952 344.502 181.502 344.288 182.263 344.288C182.673 344.288 183.083 344.35 183.493 344.473L183.336 345.061C182.971 344.947 182.609 344.89 182.249 344.89C181.72 344.89 181.344 345.047 181.121 345.361C180.902 345.671 180.793 346.177 180.793 346.879V347.569H182.543V348.157ZM193.802 347.877C193.802 348.843 193.474 349.584 192.817 350.099C192.161 350.614 191.231 350.871 190.028 350.871H188.483V355H187.786V345.006H190.233C192.612 345.006 193.802 345.963 193.802 347.877ZM188.483 350.27H189.857C190.983 350.27 191.797 350.085 192.298 349.716C192.799 349.342 193.05 348.738 193.05 347.904C193.05 347.134 192.813 346.564 192.339 346.195C191.865 345.822 191.131 345.635 190.138 345.635H188.483V350.27ZM200.316 355L200.146 353.824H200.091C199.717 354.303 199.332 354.642 198.936 354.843C198.544 355.039 198.079 355.137 197.541 355.137C196.812 355.137 196.244 354.95 195.839 354.576C195.433 354.202 195.23 353.685 195.23 353.024C195.23 352.3 195.531 351.737 196.133 351.336C196.739 350.935 197.614 350.723 198.758 350.7L200.173 350.659V350.167C200.173 349.461 200.029 348.927 199.742 348.567C199.455 348.207 198.993 348.027 198.354 348.027C197.666 348.027 196.953 348.219 196.215 348.602L195.962 348.014C196.778 347.631 197.584 347.439 198.382 347.439C199.198 347.439 199.806 347.651 200.207 348.075C200.613 348.499 200.815 349.16 200.815 350.058V355H200.316ZM197.582 354.521C198.375 354.521 198.999 354.296 199.455 353.845C199.915 353.389 200.146 352.758 200.146 351.951V351.22L198.847 351.274C197.803 351.325 197.058 351.489 196.611 351.767C196.169 352.04 195.948 352.468 195.948 353.052C195.948 353.517 196.09 353.879 196.372 354.139C196.659 354.394 197.062 354.521 197.582 354.521ZM207.836 353.065C207.836 353.731 207.583 354.243 207.077 354.604C206.571 354.959 205.854 355.137 204.924 355.137C203.93 355.137 203.142 354.984 202.559 354.679V353.947C203.306 354.321 204.094 354.508 204.924 354.508C205.658 354.508 206.214 354.387 206.592 354.146C206.975 353.899 207.166 353.574 207.166 353.168C207.166 352.794 207.013 352.48 206.708 352.225C206.407 351.969 205.91 351.719 205.218 351.473C204.475 351.204 203.953 350.974 203.652 350.782C203.352 350.586 203.124 350.368 202.969 350.126C202.818 349.88 202.743 349.581 202.743 349.23C202.743 348.674 202.976 348.235 203.44 347.911C203.91 347.588 204.564 347.426 205.402 347.426C206.204 347.426 206.965 347.576 207.686 347.877L207.433 348.492C206.703 348.191 206.027 348.041 205.402 348.041C204.796 348.041 204.315 348.141 203.96 348.342C203.604 348.542 203.427 348.82 203.427 349.176C203.427 349.563 203.563 349.873 203.837 350.105C204.115 350.338 204.655 350.598 205.457 350.885C206.127 351.126 206.615 351.345 206.92 351.541C207.225 351.732 207.453 351.951 207.604 352.197C207.758 352.443 207.836 352.733 207.836 353.065ZM214.357 353.065C214.357 353.731 214.104 354.243 213.599 354.604C213.093 354.959 212.375 355.137 211.445 355.137C210.452 355.137 209.663 354.984 209.08 354.679V353.947C209.827 354.321 210.616 354.508 211.445 354.508C212.179 354.508 212.735 354.387 213.113 354.146C213.496 353.899 213.688 353.574 213.688 353.168C213.688 352.794 213.535 352.48 213.229 352.225C212.929 351.969 212.432 351.719 211.739 351.473C210.996 351.204 210.475 350.974 210.174 350.782C209.873 350.586 209.645 350.368 209.49 350.126C209.34 349.88 209.265 349.581 209.265 349.23C209.265 348.674 209.497 348.235 209.962 347.911C210.431 347.588 211.085 347.426 211.924 347.426C212.726 347.426 213.487 347.576 214.207 347.877L213.954 348.492C213.225 348.191 212.548 348.041 211.924 348.041C211.318 348.041 210.837 348.141 210.481 348.342C210.126 348.542 209.948 348.82 209.948 349.176C209.948 349.563 210.085 349.873 210.358 350.105C210.636 350.338 211.176 350.598 211.979 350.885C212.648 351.126 213.136 351.345 213.441 351.541C213.747 351.732 213.975 351.951 214.125 352.197C214.28 352.443 214.357 352.733 214.357 353.065ZM216.948 355H216.271V347.569H216.948V355ZM216.176 345.505C216.176 345.067 216.319 344.849 216.606 344.849C216.748 344.849 216.857 344.906 216.935 345.02C217.017 345.133 217.058 345.295 217.058 345.505C217.058 345.71 217.017 345.872 216.935 345.99C216.857 346.109 216.748 346.168 216.606 346.168C216.319 346.168 216.176 345.947 216.176 345.505ZM224.625 355V350.181C224.625 349.433 224.468 348.891 224.153 348.554C223.839 348.212 223.351 348.041 222.69 348.041C221.802 348.041 221.15 348.267 220.735 348.718C220.325 349.164 220.12 349.891 220.12 350.898V355H219.443V347.569H220.018L220.147 348.588H220.188C220.672 347.813 221.531 347.426 222.766 347.426C224.452 347.426 225.295 348.33 225.295 350.14V355H224.625ZM233.498 347.569V348.041L231.96 348.137C232.37 348.647 232.575 349.208 232.575 349.818C232.575 350.534 232.336 351.115 231.857 351.562C231.383 352.004 230.745 352.225 229.943 352.225C229.606 352.225 229.369 352.211 229.232 352.184C228.964 352.325 228.758 352.491 228.617 352.683C228.476 352.874 228.405 353.077 228.405 353.291C228.405 353.528 228.494 353.701 228.672 353.811C228.854 353.92 229.157 353.975 229.581 353.975H230.88C231.687 353.975 232.304 354.139 232.732 354.467C233.161 354.79 233.375 355.271 233.375 355.909C233.375 356.693 233.056 357.297 232.418 357.721C231.785 358.149 230.88 358.363 229.704 358.363C228.77 358.363 228.045 358.183 227.53 357.823C227.02 357.463 226.765 356.962 226.765 356.319C226.765 355.809 226.922 355.385 227.236 355.048C227.555 354.711 227.986 354.48 228.528 354.357C228.305 354.262 228.125 354.127 227.988 353.954C227.856 353.776 227.79 353.574 227.79 353.346C227.79 352.849 228.107 352.411 228.74 352.033C228.307 351.855 227.97 351.577 227.729 351.199C227.487 350.816 227.366 350.379 227.366 349.887C227.366 349.144 227.601 348.549 228.07 348.103C228.544 347.651 229.182 347.426 229.984 347.426C230.472 347.426 230.85 347.474 231.119 347.569H233.498ZM227.482 356.258C227.482 357.279 228.241 357.789 229.759 357.789C231.709 357.789 232.685 357.167 232.685 355.923C232.685 355.476 232.532 355.153 232.227 354.952C231.921 354.752 231.427 354.651 230.743 354.651H229.526C228.164 354.651 227.482 355.187 227.482 356.258ZM228.05 349.887C228.05 350.461 228.223 350.908 228.569 351.227C228.92 351.541 229.387 351.698 229.971 351.698C230.59 351.698 231.064 351.541 231.393 351.227C231.725 350.912 231.892 350.456 231.892 349.859C231.892 349.226 231.721 348.752 231.379 348.438C231.042 348.118 230.568 347.959 229.957 347.959C229.365 347.959 228.897 348.13 228.556 348.472C228.218 348.809 228.05 349.281 228.05 349.887Z" fill="black"/>
<circle cx="55.7319" cy="350" r="10" fill="#175CFF"/>
<path d="M57.9878 348.458C57.9878 348.904 57.8527 349.283 57.5825 349.596C57.3123 349.908 56.9331 350.123 56.4448 350.24V350.27C57.021 350.341 57.4572 350.517 57.7534 350.797C58.0496 351.074 58.1978 351.448 58.1978 351.92C58.1978 352.607 57.9487 353.142 57.4507 353.526C56.9526 353.907 56.2414 354.098 55.3169 354.098C54.5422 354.098 53.8553 353.969 53.2563 353.712V352.428C53.533 352.568 53.8374 352.682 54.1694 352.77C54.5015 352.857 54.8302 352.901 55.1558 352.901C55.6538 352.901 56.0216 352.817 56.2593 352.647C56.4969 352.478 56.6157 352.206 56.6157 351.832C56.6157 351.497 56.479 351.259 56.2056 351.119C55.9321 350.979 55.4959 350.909 54.897 350.909H54.355V349.752H54.9067C55.4601 349.752 55.8638 349.68 56.1177 349.537C56.3748 349.391 56.5034 349.142 56.5034 348.79C56.5034 348.25 56.1649 347.979 55.4878 347.979C55.2534 347.979 55.0142 348.019 54.77 348.097C54.5291 348.175 54.2606 348.31 53.9644 348.502L53.2661 347.462C53.9172 346.993 54.6935 346.759 55.5952 346.759C56.3341 346.759 56.9168 346.909 57.3433 347.208C57.7729 347.507 57.9878 347.924 57.9878 348.458Z" fill="white"/>
<rect x="44.4253" y="267" width="381.536" height="13" rx="6.5" fill="#E9E9E9"/>
<rect x="44.4253" y="284" width="381.536" height="13" rx="6.5" fill="#E9E9E9"/>
<rect x="44.4253" y="301" width="381.536" height="13" rx="6.5" fill="#E9E9E9"/>
<path d="M84.3789 254H83.8047L81.6104 246.289C81.4281 245.656 81.2913 245.136 81.2002 244.73C81.1273 245.127 81.0225 245.583 80.8857 246.098C80.7536 246.613 80.0199 249.247 78.6846 254H78.0967L75.3486 244.006H76.0801L77.8301 250.445C77.8984 250.705 77.9622 250.947 78.0215 251.17C78.0807 251.389 78.1331 251.596 78.1787 251.792C78.2288 251.983 78.2721 252.17 78.3086 252.353C78.3496 252.53 78.3861 252.71 78.418 252.893C78.5273 252.273 78.7598 251.332 79.1152 250.069L80.8242 244.006H81.5967L83.5996 250.965C83.832 251.767 83.9984 252.414 84.0986 252.906C84.1579 252.578 84.2331 252.229 84.3242 251.86C84.4199 251.491 85.124 248.873 86.4365 244.006H87.1406L84.3789 254ZM89.417 254H88.7402V246.569H89.417V254ZM88.6445 244.505C88.6445 244.067 88.7881 243.849 89.0752 243.849C89.2165 243.849 89.3258 243.906 89.4033 244.02C89.4854 244.133 89.5264 244.295 89.5264 244.505C89.5264 244.71 89.4854 244.872 89.4033 244.99C89.3258 245.109 89.2165 245.168 89.0752 245.168C88.7881 245.168 88.6445 244.947 88.6445 244.505ZM93.874 253.535C94.3024 253.535 94.6761 253.499 94.9951 253.426V253.973C94.667 254.082 94.2887 254.137 93.8604 254.137C93.2041 254.137 92.7188 253.961 92.4043 253.61C92.0944 253.259 91.9395 252.708 91.9395 251.956V247.157H90.8389V246.761L91.9395 246.453L92.2812 244.771H92.6299V246.569H94.8105V247.157H92.6299V251.86C92.6299 252.43 92.7301 252.852 92.9307 253.125C93.1312 253.398 93.4456 253.535 93.874 253.535ZM101.783 254V249.181C101.783 248.433 101.626 247.891 101.312 247.554C100.997 247.212 100.509 247.041 99.8486 247.041C98.96 247.041 98.3083 247.267 97.8936 247.718C97.4834 248.164 97.2783 248.891 97.2783 249.898V254H96.6016V243.363H97.2783V246.747L97.2441 247.697H97.292C97.57 247.251 97.9209 246.927 98.3447 246.727C98.7686 246.526 99.2949 246.426 99.9238 246.426C101.61 246.426 102.453 247.33 102.453 249.14V254H101.783ZM105.536 254H104.859V246.569H105.536V254ZM104.764 244.505C104.764 244.067 104.907 243.849 105.194 243.849C105.336 243.849 105.445 243.906 105.522 244.02C105.604 244.133 105.646 244.295 105.646 244.505C105.646 244.71 105.604 244.872 105.522 244.99C105.445 245.109 105.336 245.168 105.194 245.168C104.907 245.168 104.764 244.947 104.764 244.505ZM113.213 254V249.181C113.213 248.433 113.056 247.891 112.741 247.554C112.427 247.212 111.939 247.041 111.278 247.041C110.39 247.041 109.738 247.267 109.323 247.718C108.913 248.164 108.708 248.891 108.708 249.898V254H108.031V246.569H108.605L108.735 247.588H108.776C109.259 246.813 110.118 246.426 111.354 246.426C113.04 246.426 113.883 247.33 113.883 249.14V254H113.213ZM127.685 248.907C127.685 250.584 127.245 251.854 126.365 252.715C125.486 253.572 124.194 254 122.489 254H120.097V244.006H122.797C124.392 244.006 125.604 244.423 126.434 245.257C127.268 246.091 127.685 247.308 127.685 248.907ZM126.926 248.935C126.926 247.504 126.561 246.428 125.832 245.708C125.107 244.983 124.041 244.621 122.633 244.621H120.794V253.385H122.448C125.433 253.385 126.926 251.901 126.926 248.935ZM134.322 254L134.151 252.824H134.097C133.723 253.303 133.338 253.642 132.941 253.843C132.549 254.039 132.085 254.137 131.547 254.137C130.818 254.137 130.25 253.95 129.845 253.576C129.439 253.202 129.236 252.685 129.236 252.024C129.236 251.3 129.537 250.737 130.139 250.336C130.745 249.935 131.62 249.723 132.764 249.7L134.179 249.659V249.167C134.179 248.461 134.035 247.927 133.748 247.567C133.461 247.207 132.998 247.027 132.36 247.027C131.672 247.027 130.959 247.219 130.221 247.602L129.968 247.014C130.784 246.631 131.59 246.439 132.388 246.439C133.203 246.439 133.812 246.651 134.213 247.075C134.618 247.499 134.821 248.16 134.821 249.058V254H134.322ZM131.588 253.521C132.381 253.521 133.005 253.296 133.461 252.845C133.921 252.389 134.151 251.758 134.151 250.951V250.22L132.853 250.274C131.809 250.325 131.064 250.489 130.617 250.767C130.175 251.04 129.954 251.468 129.954 252.052C129.954 252.517 130.095 252.879 130.378 253.139C130.665 253.394 131.068 253.521 131.588 253.521ZM135.99 246.569H136.688L138.26 250.739C138.738 252.02 139.041 252.883 139.169 253.33H139.21C139.401 252.742 139.714 251.865 140.146 250.698L141.719 246.569H142.416L139.087 255.203C138.818 255.905 138.592 256.379 138.41 256.625C138.228 256.871 138.014 257.056 137.768 257.179C137.526 257.302 137.232 257.363 136.886 257.363C136.626 257.363 136.337 257.315 136.018 257.22V256.632C136.282 256.705 136.567 256.741 136.872 256.741C137.104 256.741 137.31 256.687 137.487 256.577C137.665 256.468 137.825 256.297 137.966 256.064C138.112 255.837 138.278 255.472 138.465 254.971C138.656 254.474 138.779 254.15 138.834 254L135.99 246.569ZM148.268 252.065C148.268 252.731 148.015 253.243 147.509 253.604C147.003 253.959 146.285 254.137 145.355 254.137C144.362 254.137 143.574 253.984 142.99 253.679V252.947C143.738 253.321 144.526 253.508 145.355 253.508C146.089 253.508 146.645 253.387 147.023 253.146C147.406 252.899 147.598 252.574 147.598 252.168C147.598 251.794 147.445 251.48 147.14 251.225C146.839 250.969 146.342 250.719 145.649 250.473C144.907 250.204 144.385 249.974 144.084 249.782C143.783 249.586 143.555 249.368 143.4 249.126C143.25 248.88 143.175 248.581 143.175 248.23C143.175 247.674 143.407 247.235 143.872 246.911C144.341 246.588 144.995 246.426 145.834 246.426C146.636 246.426 147.397 246.576 148.117 246.877L147.864 247.492C147.135 247.191 146.458 247.041 145.834 247.041C145.228 247.041 144.747 247.141 144.392 247.342C144.036 247.542 143.858 247.82 143.858 248.176C143.858 248.563 143.995 248.873 144.269 249.105C144.547 249.338 145.087 249.598 145.889 249.885C146.559 250.126 147.046 250.345 147.352 250.541C147.657 250.732 147.885 250.951 148.035 251.197C148.19 251.443 148.268 251.733 148.268 252.065ZM159.964 250.274C159.964 251.487 159.67 252.435 159.082 253.118C158.494 253.797 157.683 254.137 156.648 254.137C155.997 254.137 155.423 253.979 154.926 253.665C154.429 253.351 154.049 252.899 153.784 252.312C153.52 251.724 153.388 251.045 153.388 250.274C153.388 249.062 153.682 248.119 154.27 247.444C154.857 246.765 155.664 246.426 156.689 246.426C157.71 246.426 158.51 246.77 159.089 247.458C159.672 248.142 159.964 249.08 159.964 250.274ZM154.099 250.274C154.099 251.295 154.322 252.093 154.769 252.667C155.22 253.237 155.855 253.521 156.676 253.521C157.496 253.521 158.13 253.237 158.576 252.667C159.027 252.093 159.253 251.295 159.253 250.274C159.253 249.249 159.025 248.454 158.569 247.889C158.118 247.324 157.482 247.041 156.662 247.041C155.842 247.041 155.208 247.324 154.762 247.889C154.32 248.449 154.099 249.244 154.099 250.274ZM164.783 247.157H163.033V254H162.356V247.157H160.976V246.761L162.356 246.508V245.934C162.356 245.022 162.523 244.354 162.855 243.931C163.193 243.502 163.742 243.288 164.503 243.288C164.913 243.288 165.323 243.35 165.733 243.473L165.576 244.061C165.212 243.947 164.849 243.89 164.489 243.89C163.961 243.89 163.585 244.047 163.361 244.361C163.143 244.671 163.033 245.177 163.033 245.879V246.569H164.783V247.157ZM176.042 246.877C176.042 247.843 175.714 248.584 175.058 249.099C174.401 249.614 173.472 249.871 172.269 249.871H170.724V254H170.026V244.006H172.474C174.853 244.006 176.042 244.963 176.042 246.877ZM170.724 249.27H172.098C173.223 249.27 174.037 249.085 174.538 248.716C175.039 248.342 175.29 247.738 175.29 246.904C175.29 246.134 175.053 245.564 174.579 245.195C174.105 244.822 173.371 244.635 172.378 244.635H170.724V249.27ZM182.557 254L182.386 252.824H182.331C181.957 253.303 181.572 253.642 181.176 253.843C180.784 254.039 180.319 254.137 179.781 254.137C179.052 254.137 178.485 253.95 178.079 253.576C177.674 253.202 177.471 252.685 177.471 252.024C177.471 251.3 177.771 250.737 178.373 250.336C178.979 249.935 179.854 249.723 180.998 249.7L182.413 249.659V249.167C182.413 248.461 182.27 247.927 181.982 247.567C181.695 247.207 181.233 247.027 180.595 247.027C179.907 247.027 179.193 247.219 178.455 247.602L178.202 247.014C179.018 246.631 179.825 246.439 180.622 246.439C181.438 246.439 182.046 246.651 182.447 247.075C182.853 247.499 183.056 248.16 183.056 249.058V254H182.557ZM179.822 253.521C180.615 253.521 181.24 253.296 181.695 252.845C182.156 252.389 182.386 251.758 182.386 250.951V250.22L181.087 250.274C180.043 250.325 179.298 250.489 178.852 250.767C178.41 251.04 178.188 251.468 178.188 252.052C178.188 252.517 178.33 252.879 178.612 253.139C178.899 253.394 179.303 253.521 179.822 253.521ZM190.076 252.065C190.076 252.731 189.823 253.243 189.317 253.604C188.812 253.959 188.094 254.137 187.164 254.137C186.171 254.137 185.382 253.984 184.799 253.679V252.947C185.546 253.321 186.335 253.508 187.164 253.508C187.898 253.508 188.454 253.387 188.832 253.146C189.215 252.899 189.406 252.574 189.406 252.168C189.406 251.794 189.254 251.48 188.948 251.225C188.647 250.969 188.151 250.719 187.458 250.473C186.715 250.204 186.193 249.974 185.893 249.782C185.592 249.586 185.364 249.368 185.209 249.126C185.059 248.88 184.983 248.581 184.983 248.23C184.983 247.674 185.216 247.235 185.681 246.911C186.15 246.588 186.804 246.426 187.643 246.426C188.445 246.426 189.206 246.576 189.926 246.877L189.673 247.492C188.944 247.191 188.267 247.041 187.643 247.041C187.036 247.041 186.556 247.141 186.2 247.342C185.845 247.542 185.667 247.82 185.667 248.176C185.667 248.563 185.804 248.873 186.077 249.105C186.355 249.338 186.895 249.598 187.697 249.885C188.367 250.126 188.855 250.345 189.16 250.541C189.465 250.732 189.693 250.951 189.844 251.197C189.999 251.443 190.076 251.733 190.076 252.065ZM196.598 252.065C196.598 252.731 196.345 253.243 195.839 253.604C195.333 253.959 194.615 254.137 193.686 254.137C192.692 254.137 191.904 253.984 191.32 253.679V252.947C192.068 253.321 192.856 253.508 193.686 253.508C194.419 253.508 194.975 253.387 195.354 253.146C195.736 252.899 195.928 252.574 195.928 252.168C195.928 251.794 195.775 251.48 195.47 251.225C195.169 250.969 194.672 250.719 193.979 250.473C193.237 250.204 192.715 249.974 192.414 249.782C192.113 249.586 191.885 249.368 191.73 249.126C191.58 248.88 191.505 248.581 191.505 248.23C191.505 247.674 191.737 247.235 192.202 246.911C192.672 246.588 193.326 246.426 194.164 246.426C194.966 246.426 195.727 246.576 196.447 246.877L196.194 247.492C195.465 247.191 194.788 247.041 194.164 247.041C193.558 247.041 193.077 247.141 192.722 247.342C192.366 247.542 192.188 247.82 192.188 248.176C192.188 248.563 192.325 248.873 192.599 249.105C192.877 249.338 193.417 249.598 194.219 249.885C194.889 250.126 195.376 250.345 195.682 250.541C195.987 250.732 196.215 250.951 196.365 251.197C196.52 251.443 196.598 251.733 196.598 252.065ZM199.188 254H198.512V246.569H199.188V254ZM198.416 244.505C198.416 244.067 198.56 243.849 198.847 243.849C198.988 243.849 199.097 243.906 199.175 244.02C199.257 244.133 199.298 244.295 199.298 244.505C199.298 244.71 199.257 244.872 199.175 244.99C199.097 245.109 198.988 245.168 198.847 245.168C198.56 245.168 198.416 244.947 198.416 244.505ZM206.865 254V249.181C206.865 248.433 206.708 247.891 206.394 247.554C206.079 247.212 205.591 247.041 204.931 247.041C204.042 247.041 203.39 247.267 202.976 247.718C202.565 248.164 202.36 248.891 202.36 249.898V254H201.684V246.569H202.258L202.388 247.588H202.429C202.912 246.813 203.771 246.426 205.006 246.426C206.692 246.426 207.535 247.33 207.535 249.14V254H206.865ZM215.738 246.569V247.041L214.2 247.137C214.61 247.647 214.815 248.208 214.815 248.818C214.815 249.534 214.576 250.115 214.098 250.562C213.624 251.004 212.986 251.225 212.184 251.225C211.846 251.225 211.609 251.211 211.473 251.184C211.204 251.325 210.999 251.491 210.857 251.683C210.716 251.874 210.646 252.077 210.646 252.291C210.646 252.528 210.734 252.701 210.912 252.811C211.094 252.92 211.397 252.975 211.821 252.975H213.12C213.927 252.975 214.544 253.139 214.973 253.467C215.401 253.79 215.615 254.271 215.615 254.909C215.615 255.693 215.296 256.297 214.658 256.721C214.025 257.149 213.12 257.363 211.944 257.363C211.01 257.363 210.285 257.183 209.771 256.823C209.26 256.463 209.005 255.962 209.005 255.319C209.005 254.809 209.162 254.385 209.477 254.048C209.796 253.711 210.226 253.48 210.769 253.357C210.545 253.262 210.365 253.127 210.229 252.954C210.096 252.776 210.03 252.574 210.03 252.346C210.03 251.849 210.347 251.411 210.98 251.033C210.548 250.855 210.21 250.577 209.969 250.199C209.727 249.816 209.606 249.379 209.606 248.887C209.606 248.144 209.841 247.549 210.311 247.103C210.785 246.651 211.423 246.426 212.225 246.426C212.712 246.426 213.09 246.474 213.359 246.569H215.738ZM209.723 255.258C209.723 256.279 210.481 256.789 211.999 256.789C213.95 256.789 214.925 256.167 214.925 254.923C214.925 254.476 214.772 254.153 214.467 253.952C214.161 253.752 213.667 253.651 212.983 253.651H211.767C210.404 253.651 209.723 254.187 209.723 255.258ZM210.29 248.887C210.29 249.461 210.463 249.908 210.81 250.227C211.16 250.541 211.628 250.698 212.211 250.698C212.831 250.698 213.305 250.541 213.633 250.227C213.965 249.912 214.132 249.456 214.132 248.859C214.132 248.226 213.961 247.752 213.619 247.438C213.282 247.118 212.808 246.959 212.197 246.959C211.605 246.959 211.138 247.13 210.796 247.472C210.459 247.809 210.29 248.281 210.29 248.887Z" fill="black"/>
<circle cx="55.7319" cy="249" r="10" fill="#175CFF"/>
<path d="M58.2661 253H53.2759V251.95L55.0679 250.139C55.5985 249.595 55.9451 249.219 56.1079 249.011C56.2707 248.799 56.3879 248.604 56.4595 248.425C56.5311 248.246 56.5669 248.06 56.5669 247.868C56.5669 247.582 56.4871 247.368 56.3276 247.229C56.1714 247.089 55.9614 247.019 55.6978 247.019C55.4211 247.019 55.1525 247.082 54.8921 247.209C54.6317 247.336 54.3599 247.517 54.0767 247.751L53.2563 246.779C53.6079 246.48 53.8993 246.268 54.1304 246.145C54.3615 246.021 54.6138 245.926 54.8872 245.861C55.1606 245.793 55.4666 245.759 55.8052 245.759C56.2511 245.759 56.645 245.84 56.9868 246.003C57.3286 246.166 57.5939 246.394 57.7827 246.687C57.9715 246.979 58.0659 247.315 58.0659 247.692C58.0659 248.021 58.0073 248.33 57.8901 248.62C57.7762 248.907 57.5972 249.201 57.353 249.504C57.1121 249.807 56.6857 250.238 56.0737 250.798L55.1558 251.662V251.73H58.2661V253Z" fill="white"/>
<path d="M49.0034 76.1797H47.0034V84H46.23V76.1797H44.6519V75.7266L46.23 75.4375V74.7812C46.23 73.7396 46.4201 72.9766 46.8003 72.4922C47.1857 72.0026 47.8133 71.7578 48.6831 71.7578C49.1519 71.7578 49.6206 71.8281 50.0894 71.9688L49.9097 72.6406C49.493 72.5104 49.0789 72.4453 48.6675 72.4453C48.0633 72.4453 47.6336 72.625 47.3784 72.9844C47.1284 73.3385 47.0034 73.9167 47.0034 74.7188V75.5078H49.0034V76.1797ZM57.6675 79.7422C57.6675 81.1276 57.3315 82.2109 56.6597 82.9922C55.9878 83.7682 55.0607 84.1562 53.8784 84.1562C53.1336 84.1562 52.4774 83.9766 51.9097 83.6172C51.342 83.2578 50.9071 82.7422 50.605 82.0703C50.3029 81.3984 50.1519 80.6224 50.1519 79.7422C50.1519 78.3568 50.4878 77.2786 51.1597 76.5078C51.8315 75.7318 52.7534 75.3438 53.9253 75.3438C55.092 75.3438 56.006 75.737 56.6675 76.5234C57.3341 77.3047 57.6675 78.3776 57.6675 79.7422ZM50.9644 79.7422C50.9644 80.9089 51.2196 81.8203 51.73 82.4766C52.2456 83.1276 52.9722 83.4531 53.9097 83.4531C54.8472 83.4531 55.5711 83.1276 56.0815 82.4766C56.5972 81.8203 56.855 80.9089 56.855 79.7422C56.855 78.5703 56.5946 77.6615 56.0737 77.0156C55.5581 76.3698 54.8315 76.0469 53.894 76.0469C52.9565 76.0469 52.2326 76.3698 51.7222 77.0156C51.217 77.6562 50.9644 78.5651 50.9644 79.7422ZM63.3628 75.3438C63.7222 75.3438 64.1076 75.3802 64.519 75.4531L64.3706 76.1953C64.0164 76.1068 63.6493 76.0625 63.269 76.0625C62.5451 76.0625 61.9513 76.3698 61.4878 76.9844C61.0243 77.599 60.7925 78.375 60.7925 79.3125V84H60.019V75.5078H60.6753L60.7534 77.0391H60.8081C61.1571 76.4141 61.5295 75.9766 61.9253 75.7266C62.3211 75.4714 62.8003 75.3438 63.3628 75.3438ZM72.6519 83.4688C73.1414 83.4688 73.5685 83.4271 73.9331 83.3438V83.9688C73.5581 84.0938 73.1258 84.1562 72.6362 84.1562C71.8862 84.1562 71.3315 83.9557 70.9722 83.5547C70.618 83.1536 70.4409 82.5234 70.4409 81.6641V76.1797H69.1831V75.7266L70.4409 75.375L70.8315 73.4531H71.23V75.5078H73.7222V76.1797H71.23V81.5547C71.23 82.2057 71.3446 82.6875 71.5737 83C71.8029 83.3125 72.1623 83.4688 72.6519 83.4688ZM81.6909 84V78.4922C81.6909 77.638 81.5112 77.0182 81.1519 76.6328C80.7925 76.2422 80.2352 76.0469 79.48 76.0469C78.4644 76.0469 77.7196 76.3047 77.2456 76.8203C76.7769 77.3307 76.5425 78.1615 76.5425 79.3125V84H75.769V71.8438H76.5425V75.7109L76.5034 76.7969H76.5581C76.8758 76.2865 77.2769 75.9167 77.7612 75.6875C78.2456 75.4583 78.8472 75.3438 79.5659 75.3438C81.493 75.3438 82.4565 76.3776 82.4565 78.4453V84H81.6909ZM88.6362 84.1562C87.4019 84.1562 86.4383 83.776 85.7456 83.0156C85.0581 82.2552 84.7144 81.1901 84.7144 79.8203C84.7144 78.4661 85.0477 77.3828 85.7144 76.5703C86.381 75.7526 87.2795 75.3438 88.4097 75.3438C89.4097 75.3438 90.1987 75.6927 90.7769 76.3906C91.355 77.0885 91.644 78.0365 91.644 79.2344V79.8594H85.5269C85.5373 81.026 85.8081 81.9167 86.3394 82.5312C86.8758 83.1458 87.6414 83.4531 88.6362 83.4531C89.1206 83.4531 89.5451 83.4193 89.9097 83.3516C90.2795 83.2839 90.7456 83.138 91.3081 82.9141V83.6172C90.8289 83.8255 90.3862 83.9661 89.98 84.0391C89.5737 84.1172 89.1258 84.1562 88.6362 84.1562ZM88.4097 76.0312C87.592 76.0312 86.9357 76.3021 86.4409 76.8438C85.9461 77.3802 85.6571 78.1562 85.5737 79.1719H90.8237C90.8237 78.1875 90.6102 77.4193 90.1831 76.8672C89.756 76.3099 89.1649 76.0312 88.4097 76.0312ZM101.574 84.1562C100.339 84.1562 99.3758 83.776 98.6831 83.0156C97.9956 82.2552 97.6519 81.1901 97.6519 79.8203C97.6519 78.4661 97.9852 77.3828 98.6519 76.5703C99.3185 75.7526 100.217 75.3438 101.347 75.3438C102.347 75.3438 103.136 75.6927 103.714 76.3906C104.292 77.0885 104.582 78.0365 104.582 79.2344V79.8594H98.4644C98.4748 81.026 98.7456 81.9167 99.2769 82.5312C99.8133 83.1458 100.579 83.4531 101.574 83.4531C102.058 83.4531 102.483 83.4193 102.847 83.3516C103.217 83.2839 103.683 83.138 104.246 82.9141V83.6172C103.766 83.8255 103.324 83.9661 102.917 84.0391C102.511 84.1172 102.063 84.1562 101.574 84.1562ZM101.347 76.0312C100.529 76.0312 99.8732 76.3021 99.3784 76.8438C98.8836 77.3802 98.5946 78.1562 98.5112 79.1719H103.761C103.761 78.1875 103.548 77.4193 103.121 76.8672C102.694 76.3099 102.102 76.0312 101.347 76.0312ZM112.191 81.7891C112.191 82.5495 111.902 83.1354 111.324 83.5469C110.746 83.9531 109.925 84.1562 108.863 84.1562C107.727 84.1562 106.826 83.9818 106.16 83.6328V82.7969C107.014 83.224 107.915 83.4375 108.863 83.4375C109.701 83.4375 110.337 83.2995 110.769 83.0234C111.207 82.7422 111.425 82.3698 111.425 81.9062C111.425 81.4792 111.251 81.1198 110.902 80.8281C110.558 80.5365 109.99 80.25 109.199 79.9688C108.35 79.6615 107.753 79.3984 107.41 79.1797C107.066 78.9557 106.806 78.7057 106.628 78.4297C106.457 78.1484 106.371 77.8073 106.371 77.4062C106.371 76.7708 106.636 76.2682 107.167 75.8984C107.704 75.5286 108.451 75.3438 109.41 75.3438C110.326 75.3438 111.196 75.5156 112.019 75.8594L111.73 76.5625C110.897 76.2188 110.123 76.0469 109.41 76.0469C108.717 76.0469 108.167 76.1615 107.761 76.3906C107.355 76.6198 107.152 76.9375 107.152 77.3438C107.152 77.7865 107.308 78.1406 107.621 78.4062C107.938 78.6719 108.556 78.9688 109.472 79.2969C110.238 79.5729 110.795 79.8229 111.144 80.0469C111.493 80.2656 111.753 80.5156 111.925 80.7969C112.102 81.0781 112.191 81.4089 112.191 81.7891ZM116.621 83.4688C117.11 83.4688 117.537 83.4271 117.902 83.3438V83.9688C117.527 84.0938 117.095 84.1562 116.605 84.1562C115.855 84.1562 115.3 83.9557 114.941 83.5547C114.587 83.1536 114.41 82.5234 114.41 81.6641V76.1797H113.152V75.7266L114.41 75.375L114.8 73.4531H115.199V75.5078H117.691V76.1797H115.199V81.5547C115.199 82.2057 115.313 82.6875 115.542 83C115.772 83.3125 116.131 83.4688 116.621 83.4688ZM124.894 84L124.699 82.6562H124.636C124.209 83.2031 123.769 83.5911 123.316 83.8203C122.868 84.0443 122.337 84.1562 121.722 84.1562C120.889 84.1562 120.24 83.9427 119.777 83.5156C119.313 83.0885 119.082 82.4974 119.082 81.7422C119.082 80.9141 119.425 80.2708 120.113 79.8125C120.806 79.3542 121.806 79.112 123.113 79.0859L124.73 79.0391V78.4766C124.73 77.6693 124.566 77.0599 124.238 76.6484C123.91 76.237 123.381 76.0312 122.652 76.0312C121.865 76.0312 121.05 76.25 120.207 76.6875L119.917 76.0156C120.85 75.5781 121.772 75.3594 122.683 75.3594C123.615 75.3594 124.311 75.6016 124.769 76.0859C125.233 76.5703 125.464 77.3255 125.464 78.3516V84H124.894ZM121.769 83.4531C122.675 83.4531 123.389 83.1953 123.91 82.6797C124.436 82.1589 124.699 81.4375 124.699 80.5156V79.6797L123.214 79.7422C122.022 79.7995 121.17 79.987 120.66 80.3047C120.154 80.6172 119.902 81.1068 119.902 81.7734C119.902 82.3047 120.063 82.7188 120.386 83.0156C120.714 83.3073 121.175 83.4531 121.769 83.4531ZM130.464 83.4688C130.954 83.4688 131.381 83.4271 131.746 83.3438V83.9688C131.371 84.0938 130.938 84.1562 130.449 84.1562C129.699 84.1562 129.144 83.9557 128.785 83.5547C128.431 83.1536 128.253 82.5234 128.253 81.6641V76.1797H126.996V75.7266L128.253 75.375L128.644 73.4531H129.042V75.5078H131.535V76.1797H129.042V81.5547C129.042 82.2057 129.157 82.6875 129.386 83C129.615 83.3125 129.975 83.4688 130.464 83.4688ZM137.011 84.1562C135.777 84.1562 134.813 83.776 134.121 83.0156C133.433 82.2552 133.089 81.1901 133.089 79.8203C133.089 78.4661 133.423 77.3828 134.089 76.5703C134.756 75.7526 135.654 75.3438 136.785 75.3438C137.785 75.3438 138.574 75.6927 139.152 76.3906C139.73 77.0885 140.019 78.0365 140.019 79.2344V79.8594H133.902C133.912 81.026 134.183 81.9167 134.714 82.5312C135.251 83.1458 136.016 83.4531 137.011 83.4531C137.496 83.4531 137.92 83.4193 138.285 83.3516C138.654 83.2839 139.121 83.138 139.683 82.9141V83.6172C139.204 83.8255 138.761 83.9661 138.355 84.0391C137.949 84.1172 137.501 84.1562 137.011 84.1562ZM136.785 76.0312C135.967 76.0312 135.311 76.3021 134.816 76.8438C134.321 77.3802 134.032 78.1562 133.949 79.1719H139.199C139.199 78.1875 138.985 77.4193 138.558 76.8672C138.131 76.3099 137.54 76.0312 136.785 76.0312ZM153.542 79.7422C153.542 81.1276 153.207 82.2109 152.535 82.9922C151.863 83.7682 150.936 84.1562 149.753 84.1562C149.009 84.1562 148.352 83.9766 147.785 83.6172C147.217 83.2578 146.782 82.7422 146.48 82.0703C146.178 81.3984 146.027 80.6224 146.027 79.7422C146.027 78.3568 146.363 77.2786 147.035 76.5078C147.707 75.7318 148.628 75.3438 149.8 75.3438C150.967 75.3438 151.881 75.737 152.542 76.5234C153.209 77.3047 153.542 78.3776 153.542 79.7422ZM146.839 79.7422C146.839 80.9089 147.095 81.8203 147.605 82.4766C148.121 83.1276 148.847 83.4531 149.785 83.4531C150.722 83.4531 151.446 83.1276 151.957 82.4766C152.472 81.8203 152.73 80.9089 152.73 79.7422C152.73 78.5703 152.47 77.6615 151.949 77.0156C151.433 76.3698 150.707 76.0469 149.769 76.0469C148.832 76.0469 148.108 76.3698 147.597 77.0156C147.092 77.6562 146.839 78.5651 146.839 79.7422ZM159.05 76.1797H157.05V84H156.277V76.1797H154.699V75.7266L156.277 75.4375V74.7812C156.277 73.7396 156.467 72.9766 156.847 72.4922C157.233 72.0026 157.86 71.7578 158.73 71.7578C159.199 71.7578 159.667 71.8281 160.136 71.9688L159.957 72.6406C159.54 72.5104 159.126 72.4453 158.714 72.4453C158.11 72.4453 157.681 72.625 157.425 72.9844C157.175 73.3385 157.05 73.9167 157.05 74.7188V75.5078H159.05V76.1797ZM160.535 83.3906C160.535 82.8802 160.743 82.625 161.16 82.625C161.587 82.625 161.8 82.8802 161.8 83.3906C161.8 83.901 161.587 84.1562 161.16 84.1562C160.743 84.1562 160.535 83.901 160.535 83.3906ZM160.535 76.4141C160.535 75.9036 160.743 75.6484 161.16 75.6484C161.587 75.6484 161.8 75.9036 161.8 76.4141C161.8 76.6901 161.738 76.888 161.613 77.0078C161.493 77.1276 161.342 77.1875 161.16 77.1875C160.983 77.1875 160.834 77.1276 160.714 77.0078C160.595 76.888 160.535 76.6901 160.535 76.4141ZM173.683 84L170.371 74.4609H170.308C170.397 75.8776 170.441 77.2057 170.441 78.4453V84H168.746V72.5781H171.378L174.55 81.6641H174.597L177.863 72.5781H180.503V84H178.707V78.3516C178.707 77.7839 178.72 77.0443 178.746 76.1328C178.777 75.2214 178.803 74.6693 178.824 74.4766H178.761L175.332 84H173.683ZM188.722 84L188.355 82.7969H188.292C187.876 83.3229 187.457 83.6823 187.035 83.875C186.613 84.0625 186.071 84.1562 185.41 84.1562C184.561 84.1562 183.897 83.9271 183.417 83.4688C182.944 83.0104 182.707 82.362 182.707 81.5234C182.707 80.6328 183.037 79.9609 183.699 79.5078C184.36 79.0547 185.368 78.8073 186.722 78.7656L188.214 78.7188V78.2578C188.214 77.7057 188.084 77.2943 187.824 77.0234C187.569 76.7474 187.17 76.6094 186.628 76.6094C186.186 76.6094 185.761 76.6745 185.355 76.8047C184.949 76.9349 184.558 77.0885 184.183 77.2656L183.589 75.9531C184.058 75.7083 184.571 75.5234 185.128 75.3984C185.686 75.2682 186.212 75.2031 186.707 75.2031C187.806 75.2031 188.634 75.4427 189.191 75.9219C189.753 76.401 190.035 77.1536 190.035 78.1797V84H188.722ZM185.988 82.75C186.654 82.75 187.188 82.5651 187.589 82.1953C187.996 81.8203 188.199 81.2969 188.199 80.625V79.875L187.089 79.9219C186.225 79.9531 185.595 80.099 185.199 80.3594C184.808 80.6146 184.613 81.0078 184.613 81.5391C184.613 81.9245 184.727 82.224 184.957 82.4375C185.186 82.6458 185.529 82.75 185.988 82.75ZM196.98 75.2031C197.35 75.2031 197.654 75.2292 197.894 75.2812L197.714 76.9922C197.454 76.9297 197.183 76.8984 196.902 76.8984C196.167 76.8984 195.571 77.138 195.113 77.6172C194.66 78.0964 194.433 78.7188 194.433 79.4844V84H192.597V75.3594H194.035L194.277 76.8828H194.371C194.657 76.3672 195.029 75.9583 195.488 75.6562C195.951 75.3542 196.449 75.2031 196.98 75.2031ZM201.339 84H199.503V75.3594H201.339V84ZM199.394 73.0703C199.394 72.7422 199.483 72.4896 199.66 72.3125C199.842 72.1354 200.1 72.0469 200.433 72.0469C200.756 72.0469 201.006 72.1354 201.183 72.3125C201.365 72.4896 201.457 72.7422 201.457 73.0703C201.457 73.3828 201.365 73.6302 201.183 73.8125C201.006 73.9896 200.756 74.0781 200.433 74.0781C200.1 74.0781 199.842 73.9896 199.66 73.8125C199.483 73.6302 199.394 73.3828 199.394 73.0703ZM207.746 84.1562C206.402 84.1562 205.35 83.7656 204.589 82.9844C203.834 82.1979 203.457 81.1172 203.457 79.7422C203.457 78.3307 203.808 77.2214 204.511 76.4141C205.214 75.6068 206.181 75.2031 207.41 75.2031C208.55 75.2031 209.451 75.5495 210.113 76.2422C210.774 76.9349 211.105 77.888 211.105 79.1016V80.0938H205.347C205.373 80.9323 205.6 81.5781 206.027 82.0312C206.454 82.4792 207.056 82.7031 207.832 82.7031C208.342 82.7031 208.816 82.6562 209.253 82.5625C209.696 82.4635 210.17 82.3021 210.675 82.0781V83.5703C210.227 83.7839 209.774 83.9349 209.316 84.0234C208.858 84.112 208.334 84.1562 207.746 84.1562ZM207.41 76.5938C206.826 76.5938 206.358 76.7786 206.003 77.1484C205.654 77.5182 205.446 78.0573 205.378 78.7656H209.3C209.29 78.0521 209.118 77.513 208.785 77.1484C208.451 76.7786 207.993 76.5938 207.41 76.5938ZM226.55 84H224.675V78.8516H219.41V84H217.542V72.5781H219.41V77.25H224.675V72.5781H226.55V84ZM237.027 79.6641C237.027 81.0755 236.665 82.1771 235.941 82.9688C235.217 83.7604 234.209 84.1562 232.917 84.1562C232.11 84.1562 231.397 83.974 230.777 83.6094C230.157 83.2448 229.681 82.7214 229.347 82.0391C229.014 81.3568 228.847 80.5651 228.847 79.6641C228.847 78.263 229.207 77.1693 229.925 76.3828C230.644 75.5964 231.657 75.2031 232.964 75.2031C234.214 75.2031 235.204 75.6068 235.933 76.4141C236.662 77.2161 237.027 78.2995 237.027 79.6641ZM230.738 79.6641C230.738 81.6589 231.475 82.6562 232.949 82.6562C234.407 82.6562 235.136 81.6589 235.136 79.6641C235.136 77.6901 234.402 76.7031 232.933 76.7031C232.162 76.7031 231.602 76.9583 231.253 77.4688C230.91 77.9792 230.738 78.7109 230.738 79.6641ZM243.558 75.2031C244.636 75.2031 245.475 75.5938 246.074 76.375C246.678 77.1562 246.98 78.2526 246.98 79.6641C246.98 81.0807 246.675 82.1849 246.066 82.9766C245.457 83.763 244.61 84.1562 243.527 84.1562C242.433 84.1562 241.584 83.763 240.98 82.9766H240.855L240.519 84H239.144V71.8438H240.98V74.7344C240.98 74.9479 240.97 75.2656 240.949 75.6875C240.928 76.1094 240.912 76.3776 240.902 76.4922H240.98C241.563 75.6328 242.423 75.2031 243.558 75.2031ZM243.082 76.7031C242.342 76.7031 241.808 76.9219 241.48 77.3594C241.157 77.7917 240.99 78.5182 240.98 79.5391V79.6641C240.98 80.7161 241.147 81.4792 241.48 81.9531C241.813 82.4219 242.358 82.6562 243.113 82.6562C243.764 82.6562 244.256 82.3984 244.589 81.8828C244.928 81.3672 245.097 80.6224 245.097 79.6484C245.097 77.6849 244.425 76.7031 243.082 76.7031ZM254.519 84L254.152 82.7969H254.089C253.673 83.3229 253.253 83.6823 252.832 83.875C252.41 84.0625 251.868 84.1562 251.207 84.1562C250.358 84.1562 249.694 83.9271 249.214 83.4688C248.74 83.0104 248.503 82.362 248.503 81.5234C248.503 80.6328 248.834 79.9609 249.496 79.5078C250.157 79.0547 251.165 78.8073 252.519 78.7656L254.011 78.7188V78.2578C254.011 77.7057 253.881 77.2943 253.621 77.0234C253.365 76.7474 252.967 76.6094 252.425 76.6094C251.983 76.6094 251.558 76.6745 251.152 76.8047C250.746 76.9349 250.355 77.0885 249.98 77.2656L249.386 75.9531C249.855 75.7083 250.368 75.5234 250.925 75.3984C251.483 75.2682 252.009 75.2031 252.503 75.2031C253.602 75.2031 254.431 75.4427 254.988 75.9219C255.55 76.401 255.832 77.1536 255.832 78.1797V84H254.519ZM251.785 82.75C252.451 82.75 252.985 82.5651 253.386 82.1953C253.792 81.8203 253.996 81.2969 253.996 80.625V79.875L252.886 79.9219C252.022 79.9531 251.391 80.099 250.996 80.3594C250.605 80.6146 250.41 81.0078 250.41 81.5391C250.41 81.9245 250.524 82.224 250.753 82.4375C250.983 82.6458 251.326 82.75 251.785 82.75ZM262.777 75.2031C263.147 75.2031 263.451 75.2292 263.691 75.2812L263.511 76.9922C263.251 76.9297 262.98 76.8984 262.699 76.8984C261.964 76.8984 261.368 77.138 260.91 77.6172C260.457 78.0964 260.23 78.7188 260.23 79.4844V84H258.394V75.3594H259.832L260.074 76.8828H260.167C260.454 76.3672 260.826 75.9583 261.285 75.6562C261.748 75.3542 262.246 75.2031 262.777 75.2031ZM267.074 79.4375L268.113 78.1406L270.722 75.3594H272.839L269.363 79.0703L273.058 84H270.902L268.128 80.2109L267.121 81.0391V84H265.3V71.8438H267.121V77.7734L267.027 79.4375H267.074ZM278.23 84.1562C276.886 84.1562 275.834 83.7656 275.074 82.9844C274.319 82.1979 273.941 81.1172 273.941 79.7422C273.941 78.3307 274.292 77.2214 274.996 76.4141C275.699 75.6068 276.665 75.2031 277.894 75.2031C279.035 75.2031 279.936 75.5495 280.597 76.2422C281.259 76.9349 281.589 77.888 281.589 79.1016V80.0938H275.832C275.858 80.9323 276.084 81.5781 276.511 82.0312C276.938 82.4792 277.54 82.7031 278.316 82.7031C278.826 82.7031 279.3 82.6562 279.738 82.5625C280.181 82.4635 280.654 82.3021 281.16 82.0781V83.5703C280.712 83.7839 280.259 83.9349 279.8 84.0234C279.342 84.112 278.819 84.1562 278.23 84.1562ZM277.894 76.5938C277.311 76.5938 276.842 76.7786 276.488 77.1484C276.139 77.5182 275.931 78.0573 275.863 78.7656H279.785C279.774 78.0521 279.602 77.513 279.269 77.1484C278.936 76.7786 278.477 76.5938 277.894 76.5938ZM291.277 84H289.433V78.6875C289.433 78.0208 289.298 77.5234 289.027 77.1953C288.761 76.8672 288.337 76.7031 287.753 76.7031C286.977 76.7031 286.41 76.9323 286.05 77.3906C285.691 77.849 285.511 78.6172 285.511 79.6953V84H283.675V75.3594H285.113L285.371 76.4922H285.464C285.725 76.0807 286.095 75.763 286.574 75.5391C287.053 75.3151 287.584 75.2031 288.167 75.2031C290.24 75.2031 291.277 76.2578 291.277 78.3672V84ZM44.2319 102.162C43.8726 102.162 43.5776 102.109 43.3472 102.004V101.488C43.6519 101.566 43.9429 101.605 44.2202 101.605C45.1655 101.605 45.6382 101.09 45.6382 100.059V91.4336H46.2358V100C46.2358 101.441 45.5679 102.162 44.2319 102.162ZM48.9604 93.6309V97.7559C48.9604 98.3965 49.0952 98.8633 49.3647 99.1562C49.6343 99.4453 50.0522 99.5898 50.6187 99.5898C51.3765 99.5898 51.9331 99.3984 52.2886 99.0156C52.6479 98.6328 52.8276 98.0098 52.8276 97.1465V93.6309H53.4019V100H52.9097L52.8042 99.1211H52.769C52.355 99.7852 51.6187 100.117 50.5601 100.117C49.1108 100.117 48.3862 99.3418 48.3862 97.791V93.6309H48.9604ZM56.1147 100H55.5347V90.8828H56.1147V100ZM57.187 93.6309H57.7847L59.1323 97.2051C59.5425 98.3027 59.8022 99.043 59.9116 99.4258H59.9468C60.1108 98.9219 60.3784 98.1699 60.7495 97.1699L62.0972 93.6309H62.6948L59.8413 101.031C59.6108 101.633 59.4175 102.039 59.2612 102.25C59.105 102.461 58.9214 102.619 58.7104 102.725C58.5034 102.83 58.2515 102.883 57.9546 102.883C57.7319 102.883 57.4839 102.842 57.2104 102.76V102.256C57.437 102.318 57.6812 102.35 57.9429 102.35C58.1421 102.35 58.3179 102.303 58.4702 102.209C58.6226 102.115 58.7593 101.969 58.8804 101.77C59.0054 101.574 59.1479 101.262 59.3081 100.832C59.4722 100.406 59.5776 100.129 59.6245 100L57.187 93.6309ZM71.8354 100H66.4741V99.4844L68.7534 97.1055C69.394 96.4414 69.8433 95.9336 70.1011 95.582C70.3589 95.2305 70.5483 94.8945 70.6694 94.5742C70.7905 94.2539 70.8511 93.918 70.8511 93.5664C70.8511 93.0547 70.6831 92.6387 70.3472 92.3184C70.0112 91.998 69.5757 91.8379 69.0405 91.8379C68.3257 91.8379 67.6421 92.0977 66.9897 92.6172L66.6733 92.2129C67.3882 91.6113 68.1812 91.3105 69.0522 91.3105C69.7983 91.3105 70.3843 91.5098 70.8101 91.9082C71.2397 92.3066 71.4546 92.8555 71.4546 93.5547C71.4546 94.1211 71.3101 94.6699 71.021 95.2012C70.7358 95.7285 70.2124 96.3809 69.4507 97.1582L67.2534 99.4141V99.4375H71.8354V100ZM73.4351 96.3496C73.4351 95.2363 73.5854 94.3008 73.8862 93.543C74.1909 92.7812 74.6206 92.2168 75.1753 91.8496C75.7339 91.4824 76.4058 91.2988 77.1909 91.2988C77.5581 91.2988 77.894 91.3438 78.1987 91.4336V91.9492C77.9136 91.8438 77.5698 91.791 77.1675 91.791C76.2026 91.791 75.4507 92.1387 74.9116 92.834C74.3765 93.5293 74.0757 94.541 74.0093 95.8691H74.0854C74.3823 95.4863 74.7222 95.1973 75.105 95.002C75.4878 94.8066 75.8921 94.709 76.3179 94.709C77.1187 94.709 77.7437 94.9375 78.1929 95.3945C78.646 95.8516 78.8726 96.4824 78.8726 97.2871C78.8726 98.1621 78.6343 98.8535 78.1577 99.3613C77.6851 99.8652 77.0464 100.117 76.2417 100.117C75.3745 100.117 74.689 99.7871 74.1851 99.127C73.6851 98.4629 73.4351 97.5371 73.4351 96.3496ZM76.2417 99.6016C76.8823 99.6016 77.3804 99.4004 77.7358 98.998C78.0913 98.5957 78.269 98.0215 78.269 97.2754C78.269 96.6191 78.0933 96.1074 77.7417 95.7402C77.3901 95.373 76.9116 95.1895 76.3062 95.1895C75.9077 95.1895 75.5366 95.2773 75.1929 95.4531C74.853 95.6289 74.5815 95.8633 74.3784 96.1562C74.1753 96.4453 74.0737 96.7422 74.0737 97.0469C74.0737 97.4805 74.1694 97.8984 74.3608 98.3008C74.5562 98.6992 74.8179 99.0156 75.146 99.25C75.478 99.4844 75.8433 99.6016 76.2417 99.6016ZM81.2515 98.6055L81.3218 98.7285C81.0288 99.7637 80.689 100.703 80.3022 101.547H79.9214C80.2222 100.473 80.437 99.4922 80.5659 98.6055H81.2515ZM91.2417 100H85.8804V99.4844L88.1597 97.1055C88.8003 96.4414 89.2495 95.9336 89.5073 95.582C89.7651 95.2305 89.9546 94.8945 90.0757 94.5742C90.1968 94.2539 90.2573 93.918 90.2573 93.5664C90.2573 93.0547 90.0894 92.6387 89.7534 92.3184C89.4175 91.998 88.9819 91.8379 88.4468 91.8379C87.7319 91.8379 87.0483 92.0977 86.396 92.6172L86.0796 92.2129C86.7944 91.6113 87.5874 91.3105 88.4585 91.3105C89.2046 91.3105 89.7905 91.5098 90.2163 91.9082C90.646 92.3066 90.8608 92.8555 90.8608 93.5547C90.8608 94.1211 90.7163 94.6699 90.4272 95.2012C90.1421 95.7285 89.6187 96.3809 88.8569 97.1582L86.6597 99.4141V99.4375H91.2417V100ZM98.2554 95.6934C98.2554 97.1973 98.0249 98.3105 97.564 99.0332C97.1069 99.7559 96.4136 100.117 95.4839 100.117C94.5894 100.117 93.9097 99.7461 93.4448 99.0039C92.98 98.2578 92.7476 97.1543 92.7476 95.6934C92.7476 94.2012 92.9722 93.0957 93.4214 92.377C93.8745 91.6582 94.562 91.2988 95.4839 91.2988C96.3862 91.2988 97.0737 91.6719 97.5464 92.418C98.019 93.1602 98.2554 94.252 98.2554 95.6934ZM93.3804 95.6934C93.3804 97.0215 93.5542 98.0039 93.9019 98.6406C94.2495 99.2734 94.7769 99.5898 95.4839 99.5898C96.2222 99.5898 96.7593 99.2617 97.0952 98.6055C97.4351 97.9492 97.605 96.9785 97.605 95.6934C97.605 94.4277 97.4351 93.4668 97.0952 92.8105C96.7593 92.1543 96.2222 91.8262 95.4839 91.8262C94.7456 91.8262 94.2104 92.1543 93.8784 92.8105C93.5464 93.4668 93.3804 94.4277 93.3804 95.6934ZM104.953 100H99.5913V99.4844L101.871 97.1055C102.511 96.4414 102.96 95.9336 103.218 95.582C103.476 95.2305 103.666 94.8945 103.787 94.5742C103.908 94.2539 103.968 93.918 103.968 93.5664C103.968 93.0547 103.8 92.6387 103.464 92.3184C103.128 91.998 102.693 91.8379 102.158 91.8379C101.443 91.8379 100.759 92.0977 100.107 92.6172L99.7905 92.2129C100.505 91.6113 101.298 91.3105 102.169 91.3105C102.916 91.3105 103.501 91.5098 103.927 91.9082C104.357 92.3066 104.572 92.8555 104.572 93.5547C104.572 94.1211 104.427 94.6699 104.138 95.2012C103.853 95.7285 103.33 96.3809 102.568 97.1582L100.371 99.4141V99.4375H104.953V100ZM109.781 100H109.207V93.7598C109.207 93.1934 109.23 92.6055 109.277 91.9961C109.218 92.0547 109.158 92.1113 109.095 92.166C109.033 92.2207 108.429 92.6953 107.285 93.5898L106.951 93.1738L109.277 91.4336H109.781V100Z" fill="black"/>
<path d="M76.415 153V143.006H77.1123V153H76.415ZM89.0547 153V148.126C89.0547 147.401 88.9134 146.873 88.6309 146.54C88.3483 146.207 87.9154 146.041 87.332 146.041C86.571 146.041 86.0081 146.251 85.6436 146.67C85.279 147.089 85.0967 147.748 85.0967 148.646V153H84.4062V147.921C84.4062 146.668 83.832 146.041 82.6836 146.041C81.9043 146.041 81.3369 146.269 80.9814 146.725C80.626 147.176 80.4482 147.9 80.4482 148.898V153H79.7715V145.569H80.332L80.4756 146.588H80.5166C80.7217 146.219 81.0133 145.934 81.3916 145.733C81.7699 145.528 82.1868 145.426 82.6426 145.426C83.8138 145.426 84.5658 145.866 84.8984 146.745H84.9258C85.1673 146.321 85.4909 145.995 85.8965 145.768C86.3066 145.54 86.7715 145.426 87.291 145.426C88.1022 145.426 88.7106 145.642 89.1162 146.075C89.5218 146.508 89.7246 147.196 89.7246 148.14V153H89.0547ZM101.414 153V148.126C101.414 147.401 101.273 146.873 100.99 146.54C100.708 146.207 100.275 146.041 99.6914 146.041C98.9303 146.041 98.3675 146.251 98.0029 146.67C97.6383 147.089 97.4561 147.748 97.4561 148.646V153H96.7656V147.921C96.7656 146.668 96.1914 146.041 95.043 146.041C94.2637 146.041 93.6963 146.269 93.3408 146.725C92.9854 147.176 92.8076 147.9 92.8076 148.898V153H92.1309V145.569H92.6914L92.835 146.588H92.876C93.0811 146.219 93.3727 145.934 93.751 145.733C94.1292 145.528 94.5462 145.426 95.002 145.426C96.1732 145.426 96.9251 145.866 97.2578 146.745H97.2852C97.5267 146.321 97.8503 145.995 98.2559 145.768C98.666 145.54 99.1309 145.426 99.6504 145.426C100.462 145.426 101.07 145.642 101.476 146.075C101.881 146.508 102.084 147.196 102.084 148.14V153H101.414ZM107.491 153.137C106.411 153.137 105.568 152.804 104.962 152.139C104.36 151.473 104.06 150.541 104.06 149.343C104.06 148.158 104.351 147.21 104.935 146.499C105.518 145.784 106.304 145.426 107.293 145.426C108.168 145.426 108.858 145.731 109.364 146.342C109.87 146.952 110.123 147.782 110.123 148.83V149.377H104.771C104.78 150.398 105.017 151.177 105.481 151.715C105.951 152.253 106.621 152.521 107.491 152.521C107.915 152.521 108.286 152.492 108.605 152.433C108.929 152.373 109.337 152.246 109.829 152.05V152.665C109.41 152.847 109.022 152.97 108.667 153.034C108.312 153.103 107.92 153.137 107.491 153.137ZM107.293 146.027C106.577 146.027 106.003 146.264 105.57 146.738C105.137 147.208 104.884 147.887 104.812 148.775H109.405C109.405 147.914 109.218 147.242 108.845 146.759C108.471 146.271 107.954 146.027 107.293 146.027ZM114.895 145.426C115.432 145.426 115.897 145.524 116.289 145.72C116.681 145.916 117.032 146.251 117.342 146.725H117.383C117.355 146.15 117.342 145.588 117.342 145.036V142.363H118.012V153H117.567L117.396 151.865H117.342C116.777 152.713 115.965 153.137 114.908 153.137C113.883 153.137 113.099 152.818 112.557 152.18C112.014 151.542 111.743 150.612 111.743 149.391C111.743 148.105 112.012 147.123 112.55 146.444C113.088 145.765 113.869 145.426 114.895 145.426ZM114.895 146.041C114.083 146.041 113.473 146.326 113.062 146.896C112.657 147.465 112.454 148.292 112.454 149.377C112.454 151.482 113.272 152.535 114.908 152.535C115.747 152.535 116.362 152.291 116.754 151.804C117.146 151.316 117.342 150.512 117.342 149.391V149.274C117.342 148.126 117.148 147.301 116.761 146.8C116.378 146.294 115.756 146.041 114.895 146.041ZM121.19 153H120.514V145.569H121.19V153ZM120.418 143.505C120.418 143.067 120.562 142.849 120.849 142.849C120.99 142.849 121.099 142.906 121.177 143.02C121.259 143.133 121.3 143.295 121.3 143.505C121.3 143.71 121.259 143.872 121.177 143.99C121.099 144.109 120.99 144.168 120.849 144.168C120.562 144.168 120.418 143.947 120.418 143.505ZM128.197 153L128.026 151.824H127.972C127.598 152.303 127.213 152.642 126.816 152.843C126.424 153.039 125.96 153.137 125.422 153.137C124.693 153.137 124.125 152.95 123.72 152.576C123.314 152.202 123.111 151.685 123.111 151.024C123.111 150.3 123.412 149.737 124.014 149.336C124.62 148.935 125.495 148.723 126.639 148.7L128.054 148.659V148.167C128.054 147.461 127.91 146.927 127.623 146.567C127.336 146.207 126.873 146.027 126.235 146.027C125.547 146.027 124.834 146.219 124.096 146.602L123.843 146.014C124.659 145.631 125.465 145.439 126.263 145.439C127.078 145.439 127.687 145.651 128.088 146.075C128.493 146.499 128.696 147.16 128.696 148.058V153H128.197ZM125.463 152.521C126.256 152.521 126.88 152.296 127.336 151.845C127.796 151.389 128.026 150.758 128.026 149.951V149.22L126.728 149.274C125.684 149.325 124.939 149.489 124.492 149.767C124.05 150.04 123.829 150.468 123.829 151.052C123.829 151.517 123.97 151.879 124.253 152.139C124.54 152.394 124.943 152.521 125.463 152.521ZM133.071 152.535C133.5 152.535 133.873 152.499 134.192 152.426V152.973C133.864 153.082 133.486 153.137 133.058 153.137C132.401 153.137 131.916 152.961 131.602 152.61C131.292 152.259 131.137 151.708 131.137 150.956V146.157H130.036V145.761L131.137 145.453L131.479 143.771H131.827V145.569H134.008V146.157H131.827V150.86C131.827 151.43 131.927 151.852 132.128 152.125C132.328 152.398 132.643 152.535 133.071 152.535ZM138.8 153.137C137.72 153.137 136.877 152.804 136.271 152.139C135.669 151.473 135.368 150.541 135.368 149.343C135.368 148.158 135.66 147.21 136.243 146.499C136.826 145.784 137.613 145.426 138.602 145.426C139.477 145.426 140.167 145.731 140.673 146.342C141.179 146.952 141.432 147.782 141.432 148.83V149.377H136.079C136.088 150.398 136.325 151.177 136.79 151.715C137.259 152.253 137.929 152.521 138.8 152.521C139.224 152.521 139.595 152.492 139.914 152.433C140.238 152.373 140.646 152.246 141.138 152.05V152.665C140.718 152.847 140.331 152.97 139.976 153.034C139.62 153.103 139.228 153.137 138.8 153.137ZM138.602 146.027C137.886 146.027 137.312 146.264 136.879 146.738C136.446 147.208 136.193 147.887 136.12 148.775H140.714C140.714 147.914 140.527 147.242 140.153 146.759C139.78 146.271 139.262 146.027 138.602 146.027ZM144.159 153H143.482V142.363H144.159V153ZM145.41 145.569H146.107L147.68 149.739C148.158 151.02 148.461 151.883 148.589 152.33H148.63C148.821 151.742 149.133 150.865 149.566 149.698L151.139 145.569H151.836L148.507 154.203C148.238 154.905 148.012 155.379 147.83 155.625C147.648 155.871 147.434 156.056 147.188 156.179C146.946 156.302 146.652 156.363 146.306 156.363C146.046 156.363 145.757 156.315 145.438 156.22V155.632C145.702 155.705 145.987 155.741 146.292 155.741C146.524 155.741 146.729 155.687 146.907 155.577C147.085 155.468 147.244 155.297 147.386 155.064C147.532 154.837 147.698 154.472 147.885 153.971C148.076 153.474 148.199 153.15 148.254 153L145.41 145.569ZM161.7 149.473H157.64L156.245 153H155.473L159.492 142.965H159.937L163.874 153H163.088L161.7 149.473ZM157.893 148.844H161.468L160.107 145.241C159.993 144.959 159.857 144.567 159.697 144.065C159.574 144.503 159.44 144.899 159.294 145.255L157.893 148.844ZM167.887 146.157H166.137V153H165.46V146.157H164.079V145.761L165.46 145.508V144.934C165.46 144.022 165.626 143.354 165.959 142.931C166.296 142.502 166.845 142.288 167.606 142.288C168.017 142.288 168.427 142.35 168.837 142.473L168.68 143.061C168.315 142.947 167.953 142.89 167.593 142.89C167.064 142.89 166.688 143.047 166.465 143.361C166.246 143.671 166.137 144.177 166.137 144.879V145.569H167.887V146.157ZM171.284 152.535C171.713 152.535 172.086 152.499 172.405 152.426V152.973C172.077 153.082 171.699 153.137 171.271 153.137C170.614 153.137 170.129 152.961 169.814 152.61C169.505 152.259 169.35 151.708 169.35 150.956V146.157H168.249V145.761L169.35 145.453L169.691 143.771H170.04V145.569H172.221V146.157H170.04V150.86C170.04 151.43 170.14 151.852 170.341 152.125C170.541 152.398 170.856 152.535 171.284 152.535ZM177.013 153.137C175.933 153.137 175.09 152.804 174.483 152.139C173.882 151.473 173.581 150.541 173.581 149.343C173.581 148.158 173.873 147.21 174.456 146.499C175.039 145.784 175.826 145.426 176.814 145.426C177.689 145.426 178.38 145.731 178.886 146.342C179.392 146.952 179.645 147.782 179.645 148.83V149.377H174.292C174.301 150.398 174.538 151.177 175.003 151.715C175.472 152.253 176.142 152.521 177.013 152.521C177.437 152.521 177.808 152.492 178.127 152.433C178.451 152.373 178.858 152.246 179.351 152.05V152.665C178.931 152.847 178.544 152.97 178.188 153.034C177.833 153.103 177.441 153.137 177.013 153.137ZM176.814 146.027C176.099 146.027 175.525 146.264 175.092 146.738C174.659 147.208 174.406 147.887 174.333 148.775H178.927C178.927 147.914 178.74 147.242 178.366 146.759C177.993 146.271 177.475 146.027 176.814 146.027ZM184.621 145.426C184.936 145.426 185.273 145.458 185.633 145.521L185.503 146.171C185.193 146.093 184.872 146.055 184.539 146.055C183.906 146.055 183.386 146.324 182.98 146.861C182.575 147.399 182.372 148.078 182.372 148.898V153H181.695V145.569H182.27L182.338 146.909H182.386C182.691 146.362 183.017 145.979 183.363 145.761C183.71 145.537 184.129 145.426 184.621 145.426ZM196.974 145.877C196.974 146.843 196.646 147.584 195.989 148.099C195.333 148.614 194.403 148.871 193.2 148.871H191.655V153H190.958V143.006H193.405C195.784 143.006 196.974 143.963 196.974 145.877ZM191.655 148.27H193.029C194.155 148.27 194.968 148.085 195.47 147.716C195.971 147.342 196.222 146.738 196.222 145.904C196.222 145.134 195.985 144.564 195.511 144.195C195.037 143.822 194.303 143.635 193.31 143.635H191.655V148.27ZM203.488 153L203.317 151.824H203.263C202.889 152.303 202.504 152.642 202.107 152.843C201.715 153.039 201.251 153.137 200.713 153.137C199.984 153.137 199.416 152.95 199.011 152.576C198.605 152.202 198.402 151.685 198.402 151.024C198.402 150.3 198.703 149.737 199.305 149.336C199.911 148.935 200.786 148.723 201.93 148.7L203.345 148.659V148.167C203.345 147.461 203.201 146.927 202.914 146.567C202.627 146.207 202.164 146.027 201.526 146.027C200.838 146.027 200.125 146.219 199.387 146.602L199.134 146.014C199.95 145.631 200.756 145.439 201.554 145.439C202.369 145.439 202.978 145.651 203.379 146.075C203.785 146.499 203.987 147.16 203.987 148.058V153H203.488ZM200.754 152.521C201.547 152.521 202.171 152.296 202.627 151.845C203.087 151.389 203.317 150.758 203.317 149.951V149.22L202.019 149.274C200.975 149.325 200.23 149.489 199.783 149.767C199.341 150.04 199.12 150.468 199.12 151.052C199.12 151.517 199.261 151.879 199.544 152.139C199.831 152.394 200.234 152.521 200.754 152.521ZM211.008 151.065C211.008 151.731 210.755 152.243 210.249 152.604C209.743 152.959 209.025 153.137 208.096 153.137C207.102 153.137 206.314 152.984 205.73 152.679V151.947C206.478 152.321 207.266 152.508 208.096 152.508C208.829 152.508 209.385 152.387 209.764 152.146C210.146 151.899 210.338 151.574 210.338 151.168C210.338 150.794 210.185 150.48 209.88 150.225C209.579 149.969 209.082 149.719 208.39 149.473C207.647 149.204 207.125 148.974 206.824 148.782C206.523 148.586 206.296 148.368 206.141 148.126C205.99 147.88 205.915 147.581 205.915 147.23C205.915 146.674 206.147 146.235 206.612 145.911C207.082 145.588 207.736 145.426 208.574 145.426C209.376 145.426 210.137 145.576 210.857 145.877L210.604 146.492C209.875 146.191 209.199 146.041 208.574 146.041C207.968 146.041 207.487 146.141 207.132 146.342C206.776 146.542 206.599 146.82 206.599 147.176C206.599 147.563 206.735 147.873 207.009 148.105C207.287 148.338 207.827 148.598 208.629 148.885C209.299 149.126 209.786 149.345 210.092 149.541C210.397 149.732 210.625 149.951 210.775 150.197C210.93 150.443 211.008 150.733 211.008 151.065ZM217.529 151.065C217.529 151.731 217.276 152.243 216.771 152.604C216.265 152.959 215.547 153.137 214.617 153.137C213.624 153.137 212.835 152.984 212.252 152.679V151.947C212.999 152.321 213.788 152.508 214.617 152.508C215.351 152.508 215.907 152.387 216.285 152.146C216.668 151.899 216.859 151.574 216.859 151.168C216.859 150.794 216.707 150.48 216.401 150.225C216.101 149.969 215.604 149.719 214.911 149.473C214.168 149.204 213.646 148.974 213.346 148.782C213.045 148.586 212.817 148.368 212.662 148.126C212.512 147.88 212.437 147.581 212.437 147.23C212.437 146.674 212.669 146.235 213.134 145.911C213.603 145.588 214.257 145.426 215.096 145.426C215.898 145.426 216.659 145.576 217.379 145.877L217.126 146.492C216.397 146.191 215.72 146.041 215.096 146.041C214.49 146.041 214.009 146.141 213.653 146.342C213.298 146.542 213.12 146.82 213.12 147.176C213.12 147.563 213.257 147.873 213.53 148.105C213.808 148.338 214.348 148.598 215.15 148.885C215.82 149.126 216.308 149.345 216.613 149.541C216.919 149.732 217.146 149.951 217.297 150.197C217.452 150.443 217.529 150.733 217.529 151.065ZM220.12 153H219.443V145.569H220.12V153ZM219.348 143.505C219.348 143.067 219.491 142.849 219.778 142.849C219.92 142.849 220.029 142.906 220.106 143.02C220.188 143.133 220.229 143.295 220.229 143.505C220.229 143.71 220.188 143.872 220.106 143.99C220.029 144.109 219.92 144.168 219.778 144.168C219.491 144.168 219.348 143.947 219.348 143.505ZM227.797 153V148.181C227.797 147.433 227.64 146.891 227.325 146.554C227.011 146.212 226.523 146.041 225.862 146.041C224.974 146.041 224.322 146.267 223.907 146.718C223.497 147.164 223.292 147.891 223.292 148.898V153H222.615V145.569H223.189L223.319 146.588H223.36C223.843 145.813 224.702 145.426 225.938 145.426C227.624 145.426 228.467 146.33 228.467 148.14V153H227.797ZM236.67 145.569V146.041L235.132 146.137C235.542 146.647 235.747 147.208 235.747 147.818C235.747 148.534 235.508 149.115 235.029 149.562C234.555 150.004 233.917 150.225 233.115 150.225C232.778 150.225 232.541 150.211 232.404 150.184C232.135 150.325 231.93 150.491 231.789 150.683C231.648 150.874 231.577 151.077 231.577 151.291C231.577 151.528 231.666 151.701 231.844 151.811C232.026 151.92 232.329 151.975 232.753 151.975H234.052C234.858 151.975 235.476 152.139 235.904 152.467C236.333 152.79 236.547 153.271 236.547 153.909C236.547 154.693 236.228 155.297 235.59 155.721C234.956 156.149 234.052 156.363 232.876 156.363C231.942 156.363 231.217 156.183 230.702 155.823C230.192 155.463 229.937 154.962 229.937 154.319C229.937 153.809 230.094 153.385 230.408 153.048C230.727 152.711 231.158 152.48 231.7 152.357C231.477 152.262 231.297 152.127 231.16 151.954C231.028 151.776 230.962 151.574 230.962 151.346C230.962 150.849 231.279 150.411 231.912 150.033C231.479 149.855 231.142 149.577 230.9 149.199C230.659 148.816 230.538 148.379 230.538 147.887C230.538 147.144 230.773 146.549 231.242 146.103C231.716 145.651 232.354 145.426 233.156 145.426C233.644 145.426 234.022 145.474 234.291 145.569H236.67ZM230.654 154.258C230.654 155.279 231.413 155.789 232.931 155.789C234.881 155.789 235.856 155.167 235.856 153.923C235.856 153.476 235.704 153.153 235.398 152.952C235.093 152.752 234.599 152.651 233.915 152.651H232.698C231.336 152.651 230.654 153.187 230.654 154.258ZM231.222 147.887C231.222 148.461 231.395 148.908 231.741 149.227C232.092 149.541 232.559 149.698 233.143 149.698C233.762 149.698 234.236 149.541 234.564 149.227C234.897 148.912 235.063 148.456 235.063 147.859C235.063 147.226 234.893 146.752 234.551 146.438C234.214 146.118 233.74 145.959 233.129 145.959C232.536 145.959 232.069 146.13 231.728 146.472C231.39 146.809 231.222 147.281 231.222 147.887Z" fill="black"/>
<circle cx="57.0386" cy="148" r="10" fill="#175CFF"/>
<path d="M58.313 152H56.8042V147.869L56.8188 147.19L56.8433 146.448C56.5926 146.699 56.4185 146.863 56.3208 146.941L55.5005 147.601L54.7729 146.692L57.0728 144.861H58.313V152Z" fill="white"/>
<rect x="45.7319" y="167" width="381.536" height="13" rx="6.5" fill="#E9E9E9"/>
<rect x="45.7319" y="184" width="381.536" height="13" rx="6.5" fill="#E9E9E9"/>
<rect x="45.7319" y="201" width="381.536" height="13" rx="6.5" fill="#E9E9E9"/>
</svg>
