<svg width="511" height="91" viewBox="0 0 511 91" fill="none" xmlns="http://www.w3.org/2000/svg">
<path d="M0.0681818 71H47.25V58.8295H14.8295V42.1591H44.6932V29.9886H14.8295V13.3523H47.1136V1.18182H0.0681818V71ZM102.145 33.5682C100.849 23.9205 93.0767 17.9545 79.8494 17.9545C66.4517 17.9545 57.6222 24.1591 57.6562 34.25C57.6222 42.0909 62.5653 47.1705 72.7926 49.2159L81.8608 51.0227C86.429 51.9432 88.5085 53.6136 88.5767 56.2386C88.5085 59.3409 85.1335 61.5568 80.054 61.5568C74.8722 61.5568 71.429 59.3409 70.5426 55.0795L56.2585 55.8295C57.6222 65.8523 66.1449 72.0227 80.0199 72.0227C93.5881 72.0227 103.304 65.1023 103.338 54.7727C103.304 47.2045 98.3608 42.6705 88.2017 40.5909L78.7244 38.6818C73.8494 37.625 72.0426 35.9545 72.0767 33.4318C72.0426 30.2955 75.5881 28.25 80.0881 28.25C85.1335 28.25 88.1335 31.0114 88.8494 34.3864L102.145 33.5682ZM140.335 18.6364H130.483V6.09091H115.96V18.6364H108.801V29.5455H115.96V56.8182C115.892 67.0795 122.881 72.1591 133.415 71.7159C137.165 71.5795 139.824 70.8295 141.29 70.3523L139.006 59.5455C138.29 59.6818 136.756 60.0227 135.392 60.0227C132.494 60.0227 130.483 58.9318 130.483 54.9091V29.5455H140.335V18.6364ZM164.727 71.9886C172.466 71.9886 177.477 68.6136 180.034 63.7386H180.443V71H194.216V35.6818C194.216 23.2045 183.648 17.9545 171.989 17.9545C159.443 17.9545 151.193 23.9545 149.182 33.5L162.614 34.5909C163.602 31.1136 166.705 28.5568 171.92 28.5568C176.864 28.5568 179.693 31.0455 179.693 35.3409V35.5455C179.693 38.9205 176.114 39.3636 167.011 40.25C156.648 41.2045 147.341 44.6818 147.341 56.375C147.341 66.7386 154.739 71.9886 164.727 71.9886ZM168.886 61.9659C164.42 61.9659 161.216 59.8864 161.216 55.8977C161.216 51.8068 164.591 49.7955 169.705 49.0795C172.875 48.6364 178.057 47.8864 179.795 46.7273V52.2841C179.795 57.7727 175.261 61.9659 168.886 61.9659ZM233.335 18.6364H223.483V6.09091H208.96V18.6364H201.801V29.5455H208.96V56.8182C208.892 67.0795 215.881 72.1591 226.415 71.7159C230.165 71.5795 232.824 70.8295 234.29 70.3523L232.006 59.5455C231.29 59.6818 229.756 60.0227 228.392 60.0227C225.494 60.0227 223.483 58.9318 223.483 54.9091V29.5455H233.335V18.6364ZM266.097 72.0227C279.051 72.0227 287.778 65.7159 289.824 56L276.392 55.1136C274.926 59.1023 271.176 61.1818 266.335 61.1818C259.074 61.1818 254.472 56.375 254.472 48.5682V48.5341H290.131V44.5455C290.131 26.75 279.358 17.9545 265.517 17.9545C250.108 17.9545 240.119 28.8977 240.119 45.0568C240.119 61.6591 249.972 72.0227 266.097 72.0227ZM254.472 39.5341C254.778 33.5682 259.312 28.7955 265.756 28.7955C272.062 28.7955 276.426 33.2955 276.46 39.5341H254.472Z" fill="#274C77"/>
<path d="M340.994 18.6364H347.165C346.688 8.03409 337.517 0.193178 324.528 0.193178C311.642 0.193178 301.722 7.93182 301.722 19.1818C301.722 28.1477 308.062 33.7727 319.006 37.0114L327.358 39.4659C336.017 41.9886 341.949 45.2273 341.949 52.3523C341.949 60.7386 334.347 66.3636 323.915 66.3636C314.506 66.3636 307.142 61.8295 306.46 53.5455H299.915C300.665 64.5909 309.665 72.1932 323.915 72.1932C339.051 72.1932 348.119 63.6364 348.119 52.4545C348.119 40.8636 338.028 36.2273 329.165 33.7386L321.801 31.625C315.017 29.7159 307.892 26.2727 307.892 18.9091C307.892 11.4091 314.608 5.92045 324.358 5.92045C333.597 5.92045 340.21 10.8636 340.994 18.6364ZM366.426 90.6364C372.972 90.6364 377.778 86.8864 380.574 79.2841L402.767 18.7386L396.153 18.6364L380.608 62.9886H380.131L364.585 18.6364H358.006L377.267 71.5114L375.358 76.8295C372.46 84.7386 368.369 86.1364 362.199 84.1932L360.562 89.5455C361.79 90.125 364.04 90.6364 366.426 90.6364ZM420.673 38.2727C420.673 29.1364 426.673 23.5114 434.923 23.5114C442.969 23.5114 448.151 28.8977 448.151 37.4545V71H454.219V37.0795C454.219 24.6705 447.026 17.9545 436.457 17.9545C428.787 17.9545 423.503 21.5 421.048 26.8523H420.503V18.6364H414.605V71H420.673V38.2727ZM490.653 72.0909C501.562 72.0909 509.233 65.2045 510.631 55.7273H504.494C503.097 62.4091 497.608 66.5341 490.653 66.5341C480.392 66.5341 473.608 57.6023 473.608 44.8523C473.608 32.1705 480.597 23.4432 490.653 23.4432C498.119 23.4432 503.165 28.25 504.46 34.1818H510.597C509.165 24.4659 501.051 17.9205 490.551 17.9205C476.847 17.9205 467.506 29.3068 467.506 45.0568C467.506 60.6705 476.574 72.0909 490.653 72.0909Z" fill="#969696"/>
</svg>
